<svg width="70" height="70" viewBox="0 0 70 70" fill="none" xmlns="http://www.w3.org/2000/svg">
<path fill-rule="evenodd" clip-rule="evenodd" d="M24.0625 35C24.0625 32.0992 25.2148 29.3172 27.266 27.266C29.3172 25.2148 32.0992 24.0625 35 24.0625C37.9008 24.0625 40.6828 25.2148 42.734 27.266C44.7852 29.3172 45.9375 32.0992 45.9375 35C45.9375 37.9008 44.7852 40.6828 42.734 42.734C40.6828 44.7852 37.9008 45.9375 35 45.9375C32.0992 45.9375 29.3172 44.7852 27.266 42.734C25.2148 40.6828 24.0625 37.9008 24.0625 35ZM35 28.4375C33.2595 28.4375 31.5903 29.1289 30.3596 30.3596C29.1289 31.5903 28.4375 33.2595 28.4375 35C28.4375 36.7405 29.1289 38.4097 30.3596 39.6404C31.5903 40.8711 33.2595 41.5625 35 41.5625C36.7405 41.5625 38.4097 40.8711 39.6404 39.6404C40.8711 38.4097 41.5625 36.7405 41.5625 35C41.5625 33.2595 40.8711 31.5903 39.6404 30.3596C38.4097 29.1289 36.7405 28.4375 35 28.4375Z" fill="#060606" fill-opacity="0.7"/>
<path fill-rule="evenodd" clip-rule="evenodd" d="M12.6087 31.0508C11.3867 32.8125 10.9375 34.1921 10.9375 35C10.9375 35.8079 11.3867 37.1875 12.6087 38.9492C13.7929 40.6496 15.5487 42.4958 17.7712 44.2021C22.225 47.6204 28.3296 50.3125 35 50.3125C41.6704 50.3125 47.775 47.6204 52.2287 44.2021C54.4513 42.4958 56.2071 40.6496 57.3913 38.9492C58.6133 37.1875 59.0625 35.8079 59.0625 35C59.0625 34.1921 58.6133 32.8125 57.3913 31.0508C56.2071 29.3504 54.4513 27.5042 52.2287 25.7979C47.775 22.3796 41.6704 19.6875 35 19.6875C28.3296 19.6875 22.225 22.3796 17.7712 25.7979C15.5487 27.5042 13.7929 29.3504 12.6087 31.0508ZM15.1054 22.3271C20.1542 18.4538 27.1717 15.3125 35 15.3125C42.8283 15.3125 49.8458 18.4538 54.8917 22.3271C57.4204 24.2667 59.5088 26.4308 60.9846 28.5571C62.4196 30.625 63.4375 32.8913 63.4375 35C63.4375 37.1088 62.4167 39.375 60.9846 41.4429C59.5088 43.5692 57.4204 45.7304 54.8946 47.6729C49.8487 51.5462 42.8283 54.6875 35 54.6875C27.1717 54.6875 20.1542 51.5462 15.1083 47.6729C12.5796 45.7333 10.4913 43.5692 9.01542 41.4429C7.58333 39.375 6.5625 37.1088 6.5625 35C6.5625 32.8913 7.58333 30.625 9.01542 28.5571C10.4913 26.4308 12.5796 24.2696 15.1054 22.3271Z" fill="#060606" fill-opacity="0.7"/>
</svg>
