<svg width="70" height="70" viewBox="0 0 70 70" fill="none" xmlns="http://www.w3.org/2000/svg">
<path d="M61.0944 17.6751L35.8167 6.00843C35.5607 5.88997 35.282 5.82861 35 5.82861C34.718 5.82861 34.4393 5.88997 34.1833 6.00843L8.90555 17.6751C8.56804 17.8313 8.2824 18.081 8.0825 18.3946C7.88261 18.7082 7.77686 19.0726 7.77778 19.4445V52.5001C7.77686 52.872 7.88261 53.2363 8.0825 53.55C8.2824 53.8636 8.56804 54.1133 8.90555 54.2695L34.1833 65.9362C34.4393 66.0546 34.718 66.116 35 66.116C35.282 66.116 35.5607 66.0546 35.8167 65.9362L61.0944 54.2695C61.4319 54.1133 61.7176 53.8636 61.9175 53.55C62.1174 53.2363 62.2231 52.872 62.2222 52.5001V19.4445C62.2231 19.0726 62.1174 18.7082 61.9175 18.3946C61.7176 18.081 61.4319 17.8313 61.0944 17.6751ZM35 9.91676L55.6305 19.4445L35 28.9723L14.3694 19.4445L35 9.91676ZM11.6667 22.4779L33.0555 32.3556V61.1334L11.6667 51.2556V22.4779ZM36.9444 61.1334V32.3556L58.3333 22.4779V51.2556L36.9444 61.1334Z" fill="#060606" fill-opacity="0.7"/>
</svg>
