<svg width="70" height="70" viewBox="0 0 70 70" fill="none" xmlns="http://www.w3.org/2000/svg">
<path d="M32.0834 5.8335V11.871C26.95 12.522 22.1786 14.8609 18.5197 18.5198C14.8607 22.1787 12.5219 26.9501 11.8709 32.0835H5.83337V37.9168H11.8709C12.5219 43.0502 14.8607 47.8216 18.5197 51.4805C22.1786 55.1395 26.95 57.4783 32.0834 58.1293V64.1668H37.9167V58.1293C43.0501 57.4783 47.8215 55.1395 51.4804 51.4805C55.1393 47.8216 57.4782 43.0502 58.1292 37.9168H64.1667V32.0835H58.1292C57.4782 26.9501 55.1393 22.1787 51.4804 18.5198C47.8215 14.8609 43.0501 12.522 37.9167 11.871V5.8335M32.0834 17.7335V23.3335H37.9167V17.7627C45.2084 18.9585 51.0417 24.7918 52.2667 32.0835H46.6667V37.9168H52.2375C51.0417 45.2085 45.2084 51.0418 37.9167 52.2668V46.6668H32.0834V52.2377C24.7917 51.0418 18.9584 45.2085 17.7334 37.9168H23.3334V32.0835H17.7625C18.9584 24.7918 24.7917 18.9585 32.0834 17.7335ZM35 32.0835C34.2265 32.0835 33.4846 32.3908 32.9376 32.9378C32.3907 33.4847 32.0834 34.2266 32.0834 35.0002C32.0834 35.7737 32.3907 36.5156 32.9376 37.0626C33.4846 37.6095 34.2265 37.9168 35 37.9168C35.7736 37.9168 36.5155 37.6095 37.0624 37.0626C37.6094 36.5156 37.9167 35.7737 37.9167 35.0002C37.9167 34.2266 37.6094 33.4847 37.0624 32.9378C36.5155 32.3908 35.7736 32.0835 35 32.0835Z" fill="#060606" fill-opacity="0.7"/>
</svg>
