<svg width="70" height="70" viewBox="0 0 70 70" fill="none" xmlns="http://www.w3.org/2000/svg">
<path d="M28.7875 35.4374L26.25 18.8416C31.9429 17.0313 38.0571 17.0313 43.75 18.8416L41.2125 35.4374C41.0084 36.8666 39.7542 37.9166 38.2959 37.9166H31.675C30.9766 37.9175 30.3011 37.6678 29.7712 37.2128C29.2413 36.7579 28.8923 36.1279 28.7875 35.4374ZM64.1667 46.6666C64.1667 44.3624 62.7959 42.2916 60.6667 41.3291C59.2636 34.5849 55.288 28.6528 49.5834 24.7916L44.45 38.9082C44.0417 40.0749 42.9334 40.8332 41.7084 40.8332H28.2917C27.0667 40.8332 25.9584 40.0749 25.55 38.9082L20.4167 24.7916C14.7227 28.6503 10.7492 34.5689 9.33337 41.2999C7.20421 42.2916 5.83337 44.3332 5.83337 46.6666L24.6459 52.0332C25.6959 52.3249 26.775 52.4999 27.8542 52.4999H42.0875C43.1667 52.4999 44.2459 52.3249 45.2959 52.0332L64.1667 46.6666Z" fill="#060606" fill-opacity="0.7"/>
</svg>
