<?xml version="1.0" encoding="UTF-8"?>
<svg version="1.1" xmlns="http://www.w3.org/2000/svg" width="512" height="512">
<path d="M0 0 C1.11426361 -0.00067474 2.22852722 -0.00134949 3.3765564 -0.00204468 C20.79103596 0.01468243 37.75998774 0.61921891 55 3.25 C56.19238281 3.42692383 57.38476562 3.60384766 58.61328125 3.78613281 C92.84106437 8.9740612 126.89408413 17.76269406 158 33.25 C158.80469727 33.64687012 159.60939453 34.04374023 160.43847656 34.45263672 C186.76113386 47.54127953 212.28963359 65.45619472 230 89.25 C230.63421875 90.09175781 231.2684375 90.93351562 231.921875 91.80078125 C240.90687879 104.1455621 245.95077968 116.55533053 244.7890625 132.06640625 C243.22865643 141.47300509 238.80738953 148.40056367 231.515625 154.4609375 C218.98141077 163.37502154 204.91842109 163.54816393 190.1302948 163.51069641 C188.43135944 163.51372092 186.73242543 163.51761189 185.03349382 163.52228898 C180.38790317 163.53253919 175.74238996 163.53039476 171.09679306 163.52610838 C166.07757675 163.52363574 161.05837883 163.53266202 156.03916931 163.54014587 C146.21473518 163.55288001 136.39032841 163.55468816 126.56588741 163.55234561 C118.57808946 163.55056083 110.59029979 163.55231554 102.60250282 163.55657005 C100.89562834 163.55746284 100.89562834 163.55746284 99.15427155 163.55837366 C96.84240466 163.55958544 94.53053777 163.56079957 92.21867088 163.56201603 C70.54912886 163.57288666 48.8796024 163.57073136 27.2100595 163.56463119 C7.40029351 163.55946268 -12.40942329 163.5707166 -32.21917955 163.58972941 C-52.57564343 163.60911667 -72.93208406 163.61736223 -93.28855723 163.61360615 C-104.71081358 163.61169543 -116.13302807 163.61416911 -127.55527687 163.62832069 C-137.27940009 163.64024677 -147.00345569 163.6416256 -156.72757987 163.62953053 C-161.68526201 163.62365045 -166.64282054 163.62251832 -171.60049438 163.63453293 C-176.14612252 163.64542061 -180.69152426 163.6422542 -185.23714193 163.62827124 C-186.87433258 163.62563224 -188.51154114 163.62796559 -190.14871416 163.63600711 C-206.09937566 163.70886494 -221.46397779 162.19238443 -233.875 151.0625 C-238.97342607 145.54737564 -242.51039618 137.75725857 -243 130.25 C-243.05027344 129.610625 -243.10054687 128.97125 -243.15234375 128.3125 C-244.08635933 107.39055105 -230.38429705 91.20252644 -217.1875 76.625 C-163.8083841 19.23833899 -75.25752434 0.04096309 0 0 Z " fill="#000000" transform="translate(255,336.75)"/>
<path d="M0 0 C32.48242985 -0.62607858 65.66577485 9.98618681 89.37353516 32.73388672 C90.39276391 33.73200814 91.4083783 34.73383694 92.41992188 35.73974609 C93.67964594 36.98234002 94.9745902 38.18898442 96.2734375 39.390625 C117.92943868 59.7972415 130.78967475 91.40455459 131.92817688 120.91719055 C131.98459975 124.06618819 132.01123614 127.21379916 132.0234375 130.36328125 C132.02913757 131.5262674 132.03483765 132.68925354 132.04071045 133.88748169 C132.05012048 136.34327294 132.05667845 138.79907658 132.06054688 141.25488281 C132.07019245 144.95010406 132.10123054 148.64475408 132.1328125 152.33984375 C132.30508709 190.73736164 122.85182818 223.89541472 95.8203125 252.12109375 C95.0159375 252.96671875 94.2115625 253.81234375 93.3828125 254.68359375 C92.5371875 255.48796875 91.6915625 256.29234375 90.8203125 257.12109375 C90.17320312 257.76304687 89.52609375 258.405 88.859375 259.06640625 C65.45071147 281.38629473 31.97084423 292.15341581 -0.02734375 291.40625 C-35.95859754 289.31018711 -64.97162464 275.52953867 -90.1796875 250.12109375 C-90.87449219 249.42371094 -91.56929687 248.72632813 -92.28515625 248.0078125 C-117.99612748 220.84969467 -124.76213642 185.35609727 -124.57080078 149.23291016 C-124.55471047 145.62624299 -124.5707403 142.02069604 -124.58984375 138.4140625 C-124.62548799 99.73028109 -114.60111294 66.19154701 -87.1796875 38.12109375 C-86.45265625 37.3321875 -85.725625 36.54328125 -84.9765625 35.73046875 C-63.39045903 12.86518878 -30.93154313 1.1779826 0 0 Z " fill="#000000" transform="translate(252.1796875,11.87890625)"/>
</svg>
