<svg width="50" height="50" viewBox="0 0 50 50" fill="none" xmlns="http://www.w3.org/2000/svg">
<path d="M4.6875 19.5312H10.1562V33.5937H6.25C6.0428 33.5937 5.84409 33.676 5.69757 33.8226C5.55106 33.9691 5.46875 34.1678 5.46875 34.375C5.46875 34.5822 5.55106 34.7809 5.69757 34.9274C5.84409 35.0739 6.0428 35.1562 6.25 35.1562H43.75C43.9572 35.1562 44.1559 35.0739 44.3024 34.9274C44.4489 34.7809 44.5312 34.5822 44.5312 34.375C44.5312 34.1678 44.4489 33.9691 44.3024 33.8226C44.1559 33.676 43.9572 33.5937 43.75 33.5937H39.8438V19.5312H45.3125C45.4829 19.5316 45.6487 19.4763 45.7847 19.3737C45.9207 19.2712 46.0195 19.1269 46.0659 18.963C46.1124 18.7991 46.104 18.6245 46.042 18.4658C45.98 18.3071 45.8679 18.173 45.7227 18.084L25.4102 5.58398C25.2869 5.50793 25.1449 5.46765 25 5.46765C24.8551 5.46765 24.7131 5.50793 24.5898 5.58398L4.27734 18.084C4.13211 18.173 4.01996 18.3071 3.95799 18.4658C3.89602 18.6245 3.88762 18.7991 3.93407 18.963C3.98052 19.1269 4.07928 19.2712 4.2153 19.3737C4.35132 19.4763 4.51714 19.5316 4.6875 19.5312ZM11.7188 19.5312H19.5312V33.5937H11.7188V19.5312ZM28.9062 19.5312V33.5937H21.0938V19.5312H28.9062ZM38.2812 33.5937H30.4688V19.5312H38.2812V33.5937ZM25 7.16796L42.5527 17.9687H7.44727L25 7.16796ZM47.6562 40.625C47.6562 40.8322 47.5739 41.0309 47.4274 41.1774C47.2809 41.3239 47.0822 41.4062 46.875 41.4062H3.125C2.9178 41.4062 2.71909 41.3239 2.57257 41.1774C2.42606 41.0309 2.34375 40.8322 2.34375 40.625C2.34375 40.4178 2.42606 40.2191 2.57257 40.0726C2.71909 39.926 2.9178 39.8437 3.125 39.8437H46.875C47.0822 39.8437 47.2809 39.926 47.4274 40.0726C47.5739 40.2191 47.6562 40.4178 47.6562 40.625Z" fill="#060606"/>
</svg>
