<svg width="45" height="45" viewBox="0 0 45 45" fill="none" xmlns="http://www.w3.org/2000/svg">
<path d="M9.73505 9.73517L7.73993 7.74005C7.73158 7.74884 7.72297 7.7564 7.71462 7.76475C3.79419 11.6849 1.58659 16.9987 1.57506 22.5429C1.56353 28.087 3.749 33.4099 7.65309 37.3464L9.64821 35.3512C6.26377 31.9422 4.37168 27.3286 4.38797 22.5249C4.40425 17.7211 6.32757 13.1205 9.73505 9.73446V9.73517ZM37.3596 7.7651C37.3244 7.72994 37.2878 7.6954 37.2521 7.66016L35.257 9.65527C36.9649 11.331 38.3239 13.3283 39.2557 15.5321C40.1875 17.7359 40.6736 20.1024 40.6858 22.495C40.6981 24.8876 40.2363 27.259 39.3271 29.4722C38.418 31.6854 37.0795 33.6966 35.3888 35.3897L37.3839 37.3848C41.3042 33.4515 43.5035 28.1234 43.4988 22.5701C43.4942 17.0168 41.2861 11.6923 37.3592 7.76562L37.3596 7.7651Z" fill="white"/>
<path d="M13.4933 13.4933C11.084 15.8834 9.72171 19.1319 9.70541 22.5256C9.68911 25.9192 11.0202 29.1807 13.4063 31.5938L15.3942 29.606C13.536 27.7196 12.5017 25.1734 12.518 22.5256C12.5343 19.8778 13.5999 17.3445 15.4811 15.4811L13.4933 13.4933ZM29.5113 15.401C30.4635 16.3227 31.223 17.4245 31.7457 18.6423C32.2684 19.86 32.5439 21.1696 32.5562 22.4947C32.5684 23.8199 32.3172 25.1343 31.8171 26.3615C31.3171 27.5888 30.5781 28.7044 29.6432 29.6436L31.6319 31.632C32.8282 30.432 33.7746 29.0065 34.4162 27.4381C35.0578 25.8698 35.3819 24.1897 35.3696 22.4953C35.3574 20.8008 35.009 19.1256 34.3448 17.5667C33.6806 16.0078 32.7136 14.5962 31.5 13.4136L29.5113 15.401ZM25.9072 19.0051C25.0829 18.2317 24.0172 17.7662 22.8896 17.6869C21.7621 17.6076 20.6417 17.9194 19.7173 18.5697C18.7928 19.2201 18.1208 20.1692 17.8145 21.2572C17.5081 22.3452 17.5862 23.5055 18.0355 24.5427C18.4848 25.5798 19.278 26.4304 20.2812 26.951C21.2844 27.4717 22.4365 27.6306 23.5432 27.4009C24.65 27.1713 25.6437 26.5672 26.357 25.6904C27.0703 24.8136 27.4595 23.7177 27.4592 22.5874C27.4596 21.9159 27.3221 21.2513 27.0551 20.6351C26.7882 20.0189 26.3974 19.4641 25.9072 19.0051ZM22.5373 24.6968C22.1201 24.6968 21.7123 24.5731 21.3654 24.3413C21.0185 24.1095 20.7481 23.7801 20.5885 23.3946C20.4288 23.0092 20.3871 22.5851 20.4684 22.1759C20.5498 21.7667 20.7507 21.3909 21.0457 21.0959C21.3407 20.8009 21.7166 20.6 22.1258 20.5186C22.5349 20.4372 22.9591 20.479 23.3445 20.6386C23.7299 20.7983 24.0594 21.0686 24.2912 21.4155C24.523 21.7624 24.6467 22.1702 24.6467 22.5874C24.6467 23.1469 24.4244 23.6834 24.0288 24.079C23.6333 24.4746 23.0967 24.6968 22.5373 24.6968Z" fill="white"/>
</svg>
