<svg width="25" height="25" viewBox="0 0 25 25" fill="none" xmlns="http://www.w3.org/2000/svg">
<path d="M12.375 9.52246C13.7083 9.58496 14.0521 10.7204 14.0729 11.2516H15.9375C15.8541 9.18913 14.3854 7.92871 12.3437 7.92871C10.0416 7.92871 8.33331 9.37663 8.33331 12.6475C8.33331 14.6683 9.30206 17.0641 12.3333 17.0641C14.6458 17.0641 15.8854 15.3454 15.9166 13.9912H14.0521C14.0208 14.6058 13.5833 15.4287 12.3541 15.4912C10.9896 15.4495 10.4166 14.387 10.4166 12.6475C10.4166 9.63704 11.75 9.5433 12.375 9.52246ZM12.5 2.08496C6.74998 2.08496 2.08331 6.75163 2.08331 12.5016C2.08331 18.2516 6.74998 22.9183 12.5 22.9183C18.25 22.9183 22.9166 18.2516 22.9166 12.5016C22.9166 6.75163 18.25 2.08496 12.5 2.08496ZM12.5 20.835C7.90623 20.835 4.16665 17.0954 4.16665 12.5016C4.16665 7.90788 7.90623 4.16829 12.5 4.16829C17.0937 4.16829 20.8333 7.90788 20.8333 12.5016C20.8333 17.0954 17.0937 20.835 12.5 20.835Z" fill="#060606"/>
</svg>
