<svg width="40" height="40" viewBox="0 0 40 40" fill="none" xmlns="http://www.w3.org/2000/svg">
<path d="M30.625 4.7251C28.8984 4.7251 27.3359 6.58447 27.3359 9.07041C27.3359 11.5626 28.8984 13.422 30.625 13.422C32.3516 13.422 33.9141 11.5626 33.9141 9.07041C33.9141 6.58447 32.3516 4.7251 30.625 4.7251ZM9.38281 4.73291C7.65312 4.73291 6.08671 6.59228 6.08671 9.07041C6.08671 11.5626 7.65312 13.422 9.38281 13.422C11.1172 13.422 12.6797 11.5626 12.6797 9.07041C12.6797 6.59228 11.1172 4.73291 9.38281 4.73291ZM6.48515 13.7892C4.53203 14.4142 2.37578 16.4063 1.84453 18.6251L1.56328 24.8516C1.55546 25.7579 2.58671 27.1016 4.43828 26.6563C8.49999 25.6876 10.6172 24.6251 13.6875 23.4142L13.3047 21.5782C10.6016 22.5313 7.50468 23.7657 4.37578 24.0704L4.46171 17.8282L5.86796 17.8438L5.81328 22.3829C7.90624 22.0001 10.7734 20.9767 13.0156 20.1954L12.5234 17.8048L13.8984 17.5235C14.4609 20.2423 14.9062 22.3829 15.4687 25.172C14.7422 25.1095 14.1719 25.0626 13.4609 25.0157C12.1016 25.5704 10.875 26.1016 9.49999 26.6173C11.2266 26.9532 12.9062 27.2423 14.2656 27.2735C15.4297 27.297 16.3047 27.0938 16.7344 26.7423C17.1641 26.3907 17.3828 25.8595 17.1328 24.6173C16.6094 22.0313 16.2187 19.5157 15.5 17.5782C14.7812 15.6251 13.8203 14.336 12.0625 13.8126C11.3203 14.4532 10.3984 14.8282 9.38281 14.8282C8.25781 14.8126 7.59843 14.4767 6.48515 13.7892ZM33.5156 13.7892C32.4062 14.4767 31.75 14.8126 30.625 14.8282C29.6172 14.8282 28.6953 14.4532 27.9531 13.8126C26.1953 14.336 25.2344 15.6251 24.5156 17.5782C23.7969 19.5157 23.4062 22.0313 22.8828 24.6173C22.6328 25.8595 22.8516 26.3907 23.2812 26.7423C23.7109 27.0938 24.5859 27.297 25.75 27.2735C27.1094 27.2423 28.7891 26.9532 30.5156 26.6173C29.1406 26.1016 27.9141 25.5704 26.5547 25.0157C25.8437 25.0626 25.2734 25.1095 24.5469 25.172C25.1094 22.3829 25.5547 20.2423 26.1172 17.5235L27.4922 17.8048L27 20.1954C29.2422 20.9845 32.1016 22.0079 34.1875 22.3907L34.1328 17.8517L35.5391 17.836L35.625 24.0782C32.5 23.7735 29.4141 22.5392 26.7109 21.586L26.3281 23.422C29.3984 24.6329 31.5078 25.6954 35.5625 26.6641C37.4141 27.1095 38.4453 25.7657 38.4375 24.8595L38.1562 18.6329C37.625 16.4063 35.4687 14.4142 33.5156 13.7892ZM6.79374 27.4923C5.96953 27.7345 5.00078 28.0235 4.08671 28.1407L4.28203 35.2735H13.2422L13.4375 28.6329C11.375 28.4766 8.98437 27.9376 6.79374 27.4923ZM33.2109 27.4923C31.0234 27.9376 28.6406 28.4766 26.5781 28.6329L26.7734 35.2735H35.7187L35.9141 28.1407C35 28.0235 34.0312 27.7345 33.2109 27.4923Z" fill="#060606" fill-opacity="0.8"/>
</svg>
