<svg width="28" height="28" viewBox="0 0 28 28" fill="none" xmlns="http://www.w3.org/2000/svg">
<path d="M13.9997 24.5C20.443 24.5 25.6663 19.2767 25.6663 12.8334C25.6663 6.39003 20.443 1.16669 13.9997 1.16669C7.55635 1.16669 2.33301 6.39003 2.33301 12.8334C2.33301 19.2767 7.55635 24.5 13.9997 24.5Z" fill="#FFF59D"/>
<path d="M21.5834 12.8333C21.5834 8.34166 17.7334 4.78333 13.125 5.30833C9.62504 5.71666 6.82504 8.51666 6.47504 12.0167C6.18337 14.7 7.2917 17.0917 9.15837 18.6083C9.97504 19.3083 10.5 20.3 10.5 21.4083V21.5833H17.5V21.525C17.5 20.475 17.9667 19.425 18.7834 18.725C20.475 17.325 21.5834 15.225 21.5834 12.8333Z" fill="#FBC02D"/>
<path d="M17.8496 11.7833L16.0996 10.6167C15.9246 10.5 15.6329 10.5 15.4579 10.6167L13.9996 11.55L12.5996 10.6167C12.4246 10.5 12.1329 10.5 11.9579 10.6167L10.2079 11.7833C10.0913 11.9 9.97461 12.0167 9.97461 12.1917C9.97461 12.3667 9.97461 12.5417 10.0913 12.6583L12.3079 15.4V21.5833H13.4746V15.1667C13.4746 15.05 13.4163 14.9333 13.3579 14.8167L11.4329 12.425L12.3079 11.8417L13.7079 12.775C13.8829 12.8917 14.1746 12.8917 14.3496 12.775L15.7496 11.8417L16.6246 12.425L14.6996 14.8167C14.6413 14.9333 14.5829 15.05 14.5829 15.1667V21.5833H15.7496V15.4L17.9663 12.6583C18.0829 12.5417 18.1413 12.3667 18.0829 12.1917C18.0246 12.0167 17.9663 11.8417 17.8496 11.7833Z" fill="#FFF59D"/>
<path d="M14 27.4167C14.9665 27.4167 15.75 26.6332 15.75 25.6667C15.75 24.7002 14.9665 23.9167 14 23.9167C13.0335 23.9167 12.25 24.7002 12.25 25.6667C12.25 26.6332 13.0335 27.4167 14 27.4167Z" fill="#5C6BC0"/>
<path d="M15.1667 26.25H12.8333C11.55 26.25 10.5 25.2 10.5 23.9167V21H17.5V23.9167C17.5 25.2 16.45 26.25 15.1667 26.25Z" fill="#9FA8DA"/>
<path d="M17.5 23.9166L10.7333 24.85C10.9083 25.2583 11.2583 25.6666 11.6667 25.9L17.15 25.1416C17.3833 24.7916 17.5 24.3833 17.5 23.9166ZM10.5 22.575V23.7416L17.5 22.75V21.5833L10.5 22.575Z" fill="#5C6BC0"/>
</svg>
