<svg width="40" height="40" viewBox="0 0 40 40" fill="none" xmlns="http://www.w3.org/2000/svg">
<path d="M15 16.6668L20.43 20.7402C20.7664 20.9925 21.1857 21.1083 21.6039 21.0644C22.0222 21.0205 22.4083 20.8201 22.685 20.5035L33.3333 8.3335" stroke="#060606" stroke-opacity="0.8" stroke-width="2" stroke-linecap="round"/>
<path d="M35 20.0002C35.0001 23.1344 34.0184 26.1899 32.1928 28.7376C30.3672 31.2852 27.7894 33.197 24.8215 34.2045C21.8537 35.2119 18.6447 35.2644 15.6455 34.3545C12.6463 33.4447 10.0074 31.6182 8.09946 29.1316C6.19154 26.645 5.11044 23.6232 5.00802 20.4907C4.90559 17.3582 5.78697 14.2722 7.52837 11.6663C9.26978 9.0604 11.7837 7.06543 14.7171 5.96158C17.6505 4.85773 20.856 4.70047 23.8833 5.51188" stroke="#060606" stroke-opacity="0.8" stroke-width="2" stroke-linecap="round"/>
</svg>
