<svg width="25" height="25" viewBox="0 0 25 25" fill="none" xmlns="http://www.w3.org/2000/svg">
<path d="M4.16676 10.4165L3.43031 11.1529L2.69385 10.4165L3.43031 9.68001L4.16676 10.4165ZM21.8751 18.7498C21.8751 19.0261 21.7654 19.291 21.57 19.4864C21.3746 19.6817 21.1097 19.7915 20.8334 19.7915C20.5572 19.7915 20.2922 19.6817 20.0969 19.4864C19.9015 19.291 19.7918 19.0261 19.7918 18.7498H21.8751ZM8.63864 16.3613L3.43031 11.1529L4.90322 9.68001L10.1116 14.8883L8.63864 16.3613ZM3.43031 9.68001L8.63864 4.47168L10.1116 5.9446L4.90322 11.1529L3.43031 9.68001ZM4.16676 9.3748H14.5834V11.4581H4.16676V9.3748ZM21.8751 16.6665V18.7498H19.7918V16.6665H21.8751ZM14.5834 9.3748C16.5173 9.3748 18.372 10.143 19.7394 11.5105C21.1069 12.8779 21.8751 14.7326 21.8751 16.6665H19.7918C19.7918 15.2851 19.243 13.9604 18.2663 12.9836C17.2895 12.0069 15.9648 11.4581 14.5834 11.4581V9.3748Z" fill="#FFDE5A"/>
</svg>
