<svg width="40" height="40" viewBox="0 0 40 40" fill="none" xmlns="http://www.w3.org/2000/svg">
<path d="M39.8047 29.0625L37.3828 30.0586C37.5391 30.8659 37.5391 31.6602 37.3828 32.4414L39.8047 33.4375L38.8477 35.7617L36.4258 34.7461C36.2044 35.0716 35.957 35.3776 35.6836 35.6641C35.4102 35.9505 35.0977 36.2044 34.7461 36.4258L35.7617 38.8477L33.4375 39.8047L32.4414 37.3828C32.0508 37.4609 31.6536 37.5 31.25 37.5C30.8464 37.5 30.4492 37.4609 30.0586 37.3828L29.0625 39.8047L26.7383 38.8477L27.7539 36.4258C27.0898 35.9701 26.5299 35.4102 26.0742 34.7461L23.6523 35.7617L22.6953 33.4375L25.1172 32.4414C24.9609 31.6471 24.9609 30.8529 25.1172 30.0586L22.6953 29.0625L23.6523 26.7383L26.0742 27.7539C26.5299 27.0898 27.0898 26.5299 27.7539 26.0742L26.7383 23.6523L29.0625 22.6953L30.0586 25.1172C30.8659 24.9609 31.6602 24.9609 32.4414 25.1172L33.4375 22.6953L35.7617 23.6523L34.7461 26.0742C35.0716 26.2956 35.3776 26.543 35.6641 26.8164C35.9505 27.0898 36.2044 27.4023 36.4258 27.7539L38.8477 26.7383L39.8047 29.0625ZM32.6758 34.707C33.1576 34.5117 33.5677 34.2383 33.9062 33.8867C34.2448 33.5352 34.5117 33.1315 34.707 32.6758C34.9023 32.2201 34.9935 31.7513 34.9805 31.2695C34.9674 30.7878 34.8763 30.306 34.707 29.8242C34.5247 29.3555 34.2578 28.9453 33.9062 28.5938C33.5547 28.2422 33.1445 27.9753 32.6758 27.793C32.2201 27.5977 31.7448 27.5 31.25 27.5C30.7422 27.5 30.2669 27.5977 29.8242 27.793C29.3555 27.9753 28.9453 28.2422 28.5938 28.5938C28.2422 28.9453 27.9753 29.3555 27.793 29.8242C27.3893 30.7747 27.3893 31.7253 27.793 32.6758C27.9753 33.1445 28.2422 33.5547 28.5938 33.9062C28.9453 34.2578 29.3555 34.5247 29.8242 34.707C30.7747 35.1107 31.7253 35.1107 32.6758 34.707ZM40 2.5V20H37.5V12.5H2.5V32.5H20V35H0V2.5H40ZM37.5 10V5H2.5V10H37.5ZM17.5 27.5V24.7656C17.0964 24.6224 16.7057 24.401 16.3281 24.1016L13.9648 25.4492L12.7148 23.3008L15.0586 21.9336C15.0195 21.7253 15 21.4974 15 21.25C15 21.0156 15.0195 20.7878 15.0586 20.5664L12.7148 19.1992L13.9648 17.0508L16.3281 18.3984C16.7057 18.099 17.0964 17.8776 17.5 17.7344V15H20V17.7344C20.2214 17.8125 20.4232 17.9036 20.6055 18.0078C20.7878 18.112 20.9766 18.2422 21.1719 18.3984L23.5352 17.0508L24.7852 19.1992L22.4414 20.5664C22.4805 20.7878 22.5 21.0156 22.5 21.25C22.5 21.4974 22.4805 21.7253 22.4414 21.9336L24.7852 23.3008L23.5352 25.4492L21.1719 24.1016C20.9896 24.2448 20.8073 24.3685 20.625 24.4727C20.4427 24.5768 20.2344 24.6745 20 24.7656V27.5H17.5ZM16.875 21.25C16.875 21.7708 17.0573 22.2135 17.4219 22.5781C17.7865 22.9427 18.2292 23.125 18.75 23.125C19.2708 23.125 19.7135 22.9427 20.0781 22.5781C20.4427 22.2135 20.625 21.7708 20.625 21.25C20.625 20.7292 20.4427 20.2865 20.0781 19.9219C19.7135 19.5573 19.2708 19.375 18.75 19.375C18.2292 19.375 17.7865 19.5573 17.4219 19.9219C17.0573 20.2865 16.875 20.7292 16.875 21.25Z" fill="#060606" fill-opacity="0.8"/>
</svg>
