<svg width="161" height="35" viewBox="0 0 161 35" fill="none" xmlns="http://www.w3.org/2000/svg">
<g clip-path="url(#clip0_331_823)">
<mask id="mask0_331_823" style="mask-type:luminance" maskUnits="userSpaceOnUse" x="0" y="0" width="161" height="35">
<path d="M161 0.282227H0V34.016H161V0.282227Z" fill="white"/>
</mask>
<g mask="url(#mask0_331_823)">
<path fill-rule="evenodd" clip-rule="evenodd" d="M66.0048 29.3603L58.8324 29.6229H58.831V9.98506C58.831 6.98773 59.1304 5.75059 60.582 3.50199V3.42676H52.5551V3.50199C53.9646 5.75059 54.3061 6.98654 54.3061 9.98506V24.0761C54.3061 27.1499 53.9646 28.4611 52.513 30.7848V30.8601H72.9636L74.9281 23.2521L74.2017 22.9895C71.9392 26.1743 69.3352 29.248 66.0048 29.3603ZM77.105 16.0192V24.863V24.8642C77.105 28.8742 79.1116 31.4226 82.9971 31.4226C86.6691 31.4226 88.7615 29.2492 90.3831 27.0006V31.3103L96.4454 30.0362V29.9609C94.9938 29.0987 94.353 28.387 94.353 24.4523V11.8599H88.0771V12.0092C89.4009 12.7961 90.1696 14.1455 90.1696 16.0192V25.576C89.2308 27.2239 87.6935 28.4611 85.3453 28.4611C82.7414 28.4611 81.2897 27.0376 81.2897 24.2266V11.8599H75.0982V12.0092C76.2505 12.7961 77.105 14.1085 77.105 16.0192ZM112.243 16.7308L111.56 16.8813C109.596 13.6953 107.163 12.7961 104.985 12.7961C102.637 12.7961 101.355 13.7705 101.355 15.2692C101.355 17.2931 103.673 18.1029 106.347 19.0369C106.644 19.1406 106.945 19.2459 107.248 19.3544C110.364 20.4793 113.524 21.8657 113.524 25.613C113.524 29.586 109.852 31.4214 105.027 31.4214C102.551 31.4214 100.245 30.9341 98.3664 30.3717L97.8971 25.0123L98.58 24.8618C100.587 28.4216 102.807 29.9585 105.71 29.9585C108.613 29.9585 109.809 28.5339 109.809 26.9229C109.809 24.7866 107.717 23.8874 105.283 22.9882C105.06 22.9034 104.832 22.8189 104.604 22.7337C101.599 21.6156 98.2807 20.3805 98.2807 16.6544C98.2807 12.6444 102.252 11.295 106.222 11.295C108.356 11.295 110.535 11.67 111.729 12.082L112.242 16.7285L112.243 16.7308ZM116.682 26.6997C116.682 30.3714 119.073 31.4212 121.763 31.4214C124.24 31.4212 126.203 30.4085 127.399 28.9101L126.93 28.3858C126.545 28.6856 125.564 29.1358 123.94 29.1358C121.977 29.1358 120.995 28.2735 120.995 26.6245V13.3956H126.973V11.8969H120.995V7.69945H120.526L114.207 12.7209V13.3956H116.682V26.6997ZM145.716 26.025L146.4 26.5122C144.948 29.211 142.002 31.4214 137.562 31.4214C131.628 31.4214 127.571 27.5988 127.571 21.7522C127.571 15.3062 132.523 11.2962 137.903 11.2962C143.284 11.2962 146.826 15.4185 146.272 19.7652H131.883V20.3276C131.883 25.4243 135 28.2723 139.696 28.2723C141.958 28.2723 144.136 27.6359 145.716 26.0238V26.025ZM132.053 18.38L141.873 18.1925V17.7805C141.873 14.37 140.507 12.7961 137.817 12.7961C134.828 12.7961 132.651 15.0076 132.053 18.38ZM149.516 23.4766C149.516 26.8119 149.302 28.6868 148.448 30.7848V30.8601H154.768V30.7848C153.829 28.6868 153.744 26.7749 153.744 23.4397V17.4056C154.81 16.0944 156.177 15.3445 156.903 15.3445C157.885 15.3445 159.506 15.6824 160.361 16.0192L160.916 15.9439L161.001 11.2974C158.34 11.2974 156.205 13.4066 154.452 15.1386C154.208 15.3791 153.972 15.6124 153.744 15.8316H153.53V11.11L147.424 13.2081V13.2834C148.534 14.2948 149.516 15.6812 149.516 18.1172V23.4766Z" fill="#33043C"/>
<path d="M8.32883 17.1485L19.2153 7.59285L30.1018 17.1485L19.2153 26.7041L8.32883 17.1485ZM24.2396 0.282227L19.2167 7.59285L31.4678 3.43122C29.3604 1.97912 26.9102 0.893634 24.241 0.283421L24.2396 0.282227ZM19.2153 26.7053L24.2382 34.016C26.9075 33.4058 29.3577 32.3202 31.465 30.8681L19.214 26.7065L19.2153 26.7053ZM19.2153 7.59285L14.1925 0.282227C11.5232 0.89244 9.073 1.97793 6.96563 3.43003L19.2167 7.59166L19.2153 7.59285ZM14.1925 34.016L19.2153 26.7053L6.96427 30.867C9.07165 32.319 11.5218 33.4046 14.1911 34.0147L14.1925 34.016ZM30.1032 17.1485L34.8445 27.9019C36.4988 26.0521 37.7355 23.9015 38.4307 21.5585L30.1018 17.1497L30.1032 17.1485ZM34.8445 6.3963L30.1032 17.1497L38.4321 12.7409C37.7369 10.3979 36.5002 8.24725 34.8458 6.3975L34.8445 6.3963ZM3.58622 27.9019L8.32747 17.1485L0 21.5585C0.695203 23.9015 1.93187 26.0521 3.58622 27.9019ZM8.32883 17.1485L3.58622 6.3963C1.93187 8.24605 0.695203 10.3967 0 12.7397L8.32883 17.1485Z" fill="#33043C"/>
</g>
</g>
<defs>
<clipPath id="clip0_331_823">
<rect width="161" height="34.32" fill="white" transform="translate(0 0.282227)"/>
</clipPath>
</defs>
</svg>
