<svg width="50" height="50" viewBox="0 0 50 50" fill="none" xmlns="http://www.w3.org/2000/svg">
<path d="M36.1896 41.3064L42.1062 35.4814L40.8021 34.1752L36.1896 38.7231L34.2 36.6918L32.8937 38.0085L36.1896 41.3064ZM14.1041 18.1897H35.9V16.1064H14.1021L14.1041 18.1897ZM37.5 46.0752C35.1791 46.0752 33.2104 45.2661 31.5937 43.6481C29.9757 42.0314 29.1666 40.0627 29.1666 37.7418C29.1666 35.421 29.9757 33.4515 31.5937 31.8335C33.2118 30.2154 35.1805 29.4071 37.5 29.4085C39.8194 29.4099 41.7889 30.2182 43.4083 31.8335C45.0278 33.4488 45.8361 35.4182 45.8333 37.7418C45.8333 40.0613 45.025 42.03 43.4083 43.6481C41.7889 45.2661 39.8194 46.0752 37.5 46.0752ZM8.33331 43.2689V8.3335H41.6666V24.0835C41.3278 23.9585 40.9916 23.8516 40.6583 23.7627C40.3236 23.6738 39.9653 23.6043 39.5833 23.5543V10.4168H10.4166V39.6877H23.6333C23.7278 40.2571 23.85 40.814 24 41.3585C24.1514 41.9029 24.3618 42.4224 24.6312 42.9168L24.5604 42.9877L22.1958 41.2668L19.3916 43.2689L16.5875 41.2668L13.7833 43.2689L10.9771 41.2668L8.33331 43.2689ZM14.1041 33.8939H23.9146C23.9923 33.512 24.0882 33.1543 24.2021 32.821C24.3159 32.4877 24.4493 32.1509 24.6021 31.8106H14.1041V33.8939ZM14.1041 26.0418H29.3333C30.0139 25.5043 30.743 25.0564 31.5208 24.6981C32.2986 24.3384 33.1298 24.0918 34.0146 23.9585H14.1021L14.1041 26.0418Z" fill="#060606" fill-opacity="0.8"/>
</svg>
