<svg width="45" height="45" viewBox="0 0 45 45" fill="none" xmlns="http://www.w3.org/2000/svg">
<path d="M31.875 19.6875V13.125C31.875 12.6277 31.6775 12.1508 31.3258 11.7992C30.9742 11.4475 30.4973 11.25 30 11.25H7.5C7.00272 11.25 6.52581 11.4475 6.17417 11.7992C5.82254 12.1508 5.625 12.6277 5.625 13.125V31.875C5.625 32.3723 5.82254 32.8492 6.17417 33.2008C6.52581 33.5525 7.00272 33.75 7.5 33.75H30C30.4973 33.75 30.9742 33.5525 31.3258 33.2008C31.6775 32.8492 31.875 32.3723 31.875 31.875V25.3125L39.375 32.8125V12.1875L31.875 19.6875Z" fill="white"/>
</svg>
