<svg width="26" height="26" viewBox="0 0 26 26" fill="none" xmlns="http://www.w3.org/2000/svg">
<path fill-rule="evenodd" clip-rule="evenodd" d="M3 0.5C3.66304 0.5 4.29893 0.763392 4.76777 1.23223C5.23661 1.70107 5.5 2.33696 5.5 3C5.5 3.66304 5.23661 4.29893 4.76777 4.76777C4.29893 5.23661 3.66304 5.5 3 5.5C2.33696 5.5 1.70107 5.23661 1.23223 4.76777C0.763392 4.29893 0.5 3.66304 0.5 3C0.5 2.33696 0.763392 1.70107 1.23223 1.23223C1.70107 0.763392 2.33696 0.5 3 0.5ZM13 0.5C13.663 0.5 14.2989 0.763392 14.7678 1.23223C15.2366 1.70107 15.5 2.33696 15.5 3C15.5 3.66304 15.2366 4.29893 14.7678 4.76777C14.2989 5.23661 13.663 5.5 13 5.5C12.337 5.5 11.7011 5.23661 11.2322 4.76777C10.7634 4.29893 10.5 3.66304 10.5 3C10.5 2.33696 10.7634 1.70107 11.2322 1.23223C11.7011 0.763392 12.337 0.5 13 0.5ZM25.5 3C25.5 2.33696 25.2366 1.70107 24.7678 1.23223C24.2989 0.763392 23.663 0.5 23 0.5C22.337 0.5 21.7011 0.763392 21.2322 1.23223C20.7634 1.70107 20.5 2.33696 20.5 3C20.5 3.66304 20.7634 4.29893 21.2322 4.76777C21.7011 5.23661 22.337 5.5 23 5.5C23.663 5.5 24.2989 5.23661 24.7678 4.76777C25.2366 4.29893 25.5 3.66304 25.5 3ZM3 10.5C3.66304 10.5 4.29893 10.7634 4.76777 11.2322C5.23661 11.7011 5.5 12.337 5.5 13C5.5 13.663 5.23661 14.2989 4.76777 14.7678C4.29893 15.2366 3.66304 15.5 3 15.5C2.33696 15.5 1.70107 15.2366 1.23223 14.7678C0.763392 14.2989 0.5 13.663 0.5 13C0.5 12.337 0.763392 11.7011 1.23223 11.2322C1.70107 10.7634 2.33696 10.5 3 10.5ZM15.5 13C15.5 12.337 15.2366 11.7011 14.7678 11.2322C14.2989 10.7634 13.663 10.5 13 10.5C12.337 10.5 11.7011 10.7634 11.2322 11.2322C10.7634 11.7011 10.5 12.337 10.5 13C10.5 13.663 10.7634 14.2989 11.2322 14.7678C11.7011 15.2366 12.337 15.5 13 15.5C13.663 15.5 14.2989 15.2366 14.7678 14.7678C15.2366 14.2989 15.5 13.663 15.5 13ZM23 10.5C23.663 10.5 24.2989 10.7634 24.7678 11.2322C25.2366 11.7011 25.5 12.337 25.5 13C25.5 13.663 25.2366 14.2989 24.7678 14.7678C24.2989 15.2366 23.663 15.5 23 15.5C22.337 15.5 21.7011 15.2366 21.2322 14.7678C20.7634 14.2989 20.5 13.663 20.5 13C20.5 12.337 20.7634 11.7011 21.2322 11.2322C21.7011 10.7634 22.337 10.5 23 10.5ZM5.5 23C5.5 22.337 5.23661 21.7011 4.76777 21.2322C4.29893 20.7634 3.66304 20.5 3 20.5C2.33696 20.5 1.70107 20.7634 1.23223 21.2322C0.763392 21.7011 0.5 22.337 0.5 23C0.5 23.663 0.763392 24.2989 1.23223 24.7678C1.70107 25.2366 2.33696 25.5 3 25.5C3.66304 25.5 4.29893 25.2366 4.76777 24.7678C5.23661 24.2989 5.5 23.663 5.5 23ZM13 20.5C13.663 20.5 14.2989 20.7634 14.7678 21.2322C15.2366 21.7011 15.5 22.337 15.5 23C15.5 23.663 15.2366 24.2989 14.7678 24.7678C14.2989 25.2366 13.663 25.5 13 25.5C12.337 25.5 11.7011 25.2366 11.2322 24.7678C10.7634 24.2989 10.5 23.663 10.5 23C10.5 22.337 10.7634 21.7011 11.2322 21.2322C11.7011 20.7634 12.337 20.5 13 20.5ZM25.5 23C25.5 22.337 25.2366 21.7011 24.7678 21.2322C24.2989 20.7634 23.663 20.5 23 20.5C22.337 20.5 21.7011 20.7634 21.2322 21.2322C20.7634 21.7011 20.5 22.337 20.5 23C20.5 23.663 20.7634 24.2989 21.2322 24.7678C21.7011 25.2366 22.337 25.5 23 25.5C23.663 25.5 24.2989 25.2366 24.7678 24.7678C25.2366 24.2989 25.5 23.663 25.5 23Z" fill="white"/>
</svg>
