<svg width="35" height="45" viewBox="0 0 35 45" fill="none" xmlns="http://www.w3.org/2000/svg">
<path d="M10.5334 29.3175C10.9271 29.085 11.3574 28.8618 11.8243 28.6481C11.4295 29.2358 11.0071 29.8046 10.5587 30.3525C9.77118 31.3003 9.15806 31.8037 8.77274 31.9612L8.67431 31.995C8.64646 31.9559 8.62199 31.9145 8.60118 31.8712C8.44368 31.5618 8.44931 31.2637 8.71368 30.8587C9.01181 30.3946 9.61087 29.8631 10.5334 29.3175ZM17.4381 24.6853C17.1043 24.7546 16.7706 24.8278 16.4368 24.9046C16.9327 23.9334 17.4017 22.9487 17.8431 21.9515C18.2875 22.7754 18.766 23.5805 19.2774 24.3646C18.6662 24.4546 18.0531 24.5615 17.4381 24.6853ZM24.5396 27.3262C24.1036 26.9729 23.6947 26.5874 23.3162 26.1731C23.9612 26.1862 24.5349 26.2368 25.0374 26.325C25.929 26.4853 26.3481 26.7384 26.4943 26.9128C26.5393 26.9622 26.5652 27.026 26.5674 27.0928C26.5571 27.2911 26.4993 27.484 26.3987 27.6553C26.3428 27.7927 26.2516 27.913 26.1343 28.004C26.0769 28.0412 26.0079 28.0562 25.9403 28.0462C25.6871 28.0378 25.2146 27.8606 24.5396 27.3262ZM18.2818 13.9781C18.1693 14.6643 17.9781 15.4518 17.7193 16.3096C17.6243 15.9884 17.5408 15.6638 17.469 15.3365C17.2552 14.3437 17.2243 13.5646 17.3396 13.0246C17.4465 12.5268 17.649 12.3271 17.8909 12.2287C18.0204 12.1709 18.1579 12.1329 18.2987 12.1162C18.3352 12.2006 18.3774 12.375 18.3887 12.6731C18.4037 13.0162 18.3681 13.4521 18.2818 13.9809V13.9781Z" fill="white"/>
<path fill-rule="evenodd" clip-rule="evenodd" d="M6.25 0H28.75C30.2418 0 31.6726 0.592632 32.7275 1.64752C33.7824 2.70242 34.375 4.13316 34.375 5.625V39.375C34.375 40.8668 33.7824 42.2976 32.7275 43.3525C31.6726 44.4074 30.2418 45 28.75 45H6.25C4.75816 45 3.32742 44.4074 2.27252 43.3525C1.21763 42.2976 0.625 40.8668 0.625 39.375V5.625C0.625 4.13316 1.21763 2.70242 2.27252 1.64752C3.32742 0.592632 4.75816 0 6.25 0ZM6.71406 32.8162C6.96719 33.3225 7.36094 33.7809 7.94594 33.9947C8.52813 34.2056 9.10469 34.1072 9.57719 33.9103C10.4716 33.5447 11.3631 32.6841 12.1816 31.6997C13.1181 30.5719 14.1025 29.0925 15.0531 27.4528C16.8882 26.9082 18.7676 26.5261 20.6697 26.3109C21.5134 27.3881 22.3853 28.3163 23.2291 28.9828C24.0166 29.6016 24.925 30.1163 25.8559 30.1556C26.3629 30.18 26.8648 30.0442 27.2903 29.7675C27.7262 29.4834 28.0497 29.0728 28.2859 28.5975C28.5391 28.0884 28.6937 27.5569 28.6741 27.0141C28.6571 26.4787 28.4588 25.965 28.1116 25.5572C27.4759 24.7978 26.4353 24.4322 25.4116 24.2494C24.1696 24.058 22.9097 24.0108 21.6569 24.1087C20.5996 22.6128 19.6772 21.026 18.9006 19.3669C19.6038 17.5106 20.1297 15.7556 20.3631 14.3212C20.4644 13.7081 20.5178 13.1231 20.4981 12.5944C20.4944 12.0695 20.3723 11.5523 20.1409 11.0813C20.0075 10.8213 19.8179 10.5943 19.5859 10.4168C19.3538 10.2392 19.0852 10.1155 18.7994 10.0547C18.2312 9.93375 17.6462 10.0547 17.1091 10.2712C16.0487 10.6931 15.4891 11.5931 15.2781 12.5859C15.0728 13.5422 15.1656 14.6559 15.4075 15.7809C15.655 16.9228 16.0769 18.1659 16.6169 19.4231C15.7511 21.5704 14.7536 23.6622 13.63 25.6866C12.1808 26.1434 10.7838 26.7514 9.46188 27.5006C8.42125 28.1194 7.49594 28.8506 6.93906 29.7141C6.34844 30.6309 6.16563 31.7222 6.71406 32.8162Z" fill="white"/>
</svg>
