<svg width="45" height="45" viewBox="0 0 45 45" fill="none" xmlns="http://www.w3.org/2000/svg">
<path d="M15.8203 16.875C15.8203 16.5953 15.9314 16.327 16.1292 16.1292C16.327 15.9314 16.5953 15.8203 16.875 15.8203H28.125C28.4047 15.8203 28.673 15.9314 28.8708 16.1292C29.0686 16.327 29.1797 16.5953 29.1797 16.875C29.1797 17.1547 29.0686 17.423 28.8708 17.6208C28.673 17.8186 28.4047 17.9297 28.125 17.9297H16.875C16.5953 17.9297 16.327 17.8186 16.1292 17.6208C15.9314 17.423 15.8203 17.1547 15.8203 16.875ZM16.875 23.5547H28.125C28.4047 23.5547 28.673 23.4436 28.8708 23.2458C29.0686 23.048 29.1797 22.7797 29.1797 22.5C29.1797 22.2203 29.0686 21.952 28.8708 21.7542C28.673 21.5564 28.4047 21.4453 28.125 21.4453H16.875C16.5953 21.4453 16.327 21.5564 16.1292 21.7542C15.9314 21.952 15.8203 22.2203 15.8203 22.5C15.8203 22.7797 15.9314 23.048 16.1292 23.2458C16.327 23.4436 16.5953 23.5547 16.875 23.5547ZM22.5 27.0703H16.875C16.5953 27.0703 16.327 27.1814 16.1292 27.3792C15.9314 27.577 15.8203 27.8453 15.8203 28.125C15.8203 28.4047 15.9314 28.673 16.1292 28.8708C16.327 29.0686 16.5953 29.1797 16.875 29.1797H22.5C22.7797 29.1797 23.048 29.0686 23.2458 28.8708C23.4436 28.673 23.5547 28.4047 23.5547 28.125C23.5547 27.8453 23.4436 27.577 23.2458 27.3792C23.048 27.1814 22.7797 27.0703 22.5 27.0703ZM39.0234 8.4375V27.5432C39.024 27.8664 38.9607 28.1866 38.837 28.4853C38.7133 28.784 38.5317 29.0552 38.3027 29.2834L29.2834 38.3027C29.0552 38.5317 28.784 38.7133 28.4853 38.837C28.1866 38.9607 27.8664 39.024 27.5432 39.0234H8.4375C7.78482 39.0234 7.15887 38.7642 6.69735 38.3026C6.23584 37.8411 5.97656 37.2152 5.97656 36.5625V8.4375C5.97656 7.78482 6.23584 7.15887 6.69735 6.69735C7.15887 6.23584 7.78482 5.97656 8.4375 5.97656H36.5625C37.2152 5.97656 37.8411 6.23584 38.3026 6.69735C38.7642 7.15887 39.0234 7.78482 39.0234 8.4375ZM8.4375 36.9141H27.0703V28.125C27.0703 27.8453 27.1814 27.577 27.3792 27.3792C27.577 27.1814 27.8453 27.0703 28.125 27.0703H36.9141V8.4375C36.9141 8.34426 36.877 8.25484 36.8111 8.18891C36.7452 8.12298 36.6557 8.08594 36.5625 8.08594H8.4375C8.34426 8.08594 8.25484 8.12298 8.18891 8.18891C8.12298 8.25484 8.08594 8.34426 8.08594 8.4375V36.5625C8.08594 36.6557 8.12298 36.7452 8.18891 36.8111C8.25484 36.877 8.34426 36.9141 8.4375 36.9141ZM35.4234 29.1797H29.1797V35.4234L35.4234 29.1797Z" fill="#060606" fill-opacity="0.8"/>
</svg>
