<svg width="318" height="58" viewBox="0 0 318 58" fill="none" xmlns="http://www.w3.org/2000/svg">
<g clip-path="url(#clip0_331_626)">
<mask id="mask0_331_626" style="mask-type:luminance" maskUnits="userSpaceOnUse" x="0" y="0" width="318" height="58">
<path d="M317.909 0.12207H0V57.3221H317.909V0.12207Z" fill="white"/>
</mask>
<g mask="url(#mask0_331_626)">
<path d="M163.083 18.001H89.3957C85.2256 18.001 81.2261 19.4528 78.2756 22.0375C75.3249 24.6223 73.6645 28.1287 73.6588 31.7866C73.6563 34.646 74.672 37.4346 76.5637 39.7632C78.0014 43.5686 72.9911 46.5645 72.9911 46.5645C77.1763 46.3369 79.6133 44.9751 81.0381 43.4716C83.5373 44.8468 86.4285 45.5749 89.3786 45.5721H163.083C167.252 45.5671 171.249 44.1106 174.196 41.5223C177.143 38.9341 178.797 35.4258 178.797 31.7679C178.787 28.1164 177.126 24.6178 174.181 22.0375C171.236 19.4573 167.245 18.0059 163.083 18.001ZM105.137 34.4653C103.983 35.3881 102.152 35.8482 99.6458 35.8457H93.9508V39.293H88.3366V24.8136H99.0886C101.822 24.8136 103.807 25.265 105.043 26.1679C106.279 27.0707 106.893 28.4499 106.885 30.3054C106.871 32.1609 106.288 33.5475 105.137 34.4653ZM114.74 39.293H109.688V28.2609H114.74V39.293ZM112.214 27.2125C110.326 27.2125 109.381 26.5061 109.381 25.0934C109.381 24.3211 109.607 23.78 110.066 23.4704C110.705 23.1135 111.459 22.9486 112.214 23.0004C113.226 23.0004 113.953 23.1571 114.404 23.4704C114.855 23.7838 115.076 24.3211 115.076 25.0934C115.076 26.5061 114.122 27.2125 112.214 27.2125ZM128.802 39.0319C128.802 39.0319 127.411 39.5244 124.182 39.5244C122.629 39.5244 121.525 39.237 120.874 38.6626C120.215 38.088 119.891 37.2411 119.891 36.1256V31.6933H117.586V28.2459H119.079C119.344 28.263 119.608 28.2069 119.835 28.0855C120.031 27.9367 120.161 27.7318 120.202 27.5072C120.329 27.0819 120.516 26.179 120.763 24.7986H124.974V28.2459H128.776V31.6933H124.974V35.0921C124.943 35.2361 124.954 35.3845 125.004 35.5239C125.056 35.6633 125.146 35.7893 125.267 35.8905C125.584 36.054 125.951 36.127 126.317 36.0995C127.153 36.0665 127.985 35.9768 128.805 35.8308L128.802 39.0319ZM146.35 32.4358C145.5 32.1622 144.632 31.9318 143.752 31.7455C142.558 31.5252 141.338 31.4263 140.119 31.4508C138.094 31.4508 137.084 32.1571 137.086 33.5699V33.9616C137.059 34.2596 137.11 34.5591 137.236 34.8368C137.363 35.1145 137.56 35.3627 137.814 35.5622C138.303 35.9092 139.068 36.0808 140.119 36.0808C141.291 36.0863 142.461 35.9876 143.611 35.786C144.545 35.6242 145.461 35.3933 146.35 35.0959V38.2969C145.111 39.1177 143.034 39.528 140.119 39.528H139.724C137.047 39.528 135.096 39.0232 133.872 38.0134C132.646 37.0035 132.034 35.653 132.034 33.9616V33.5699C132 32.821 132.15 32.0744 132.471 31.3801C132.794 30.6858 133.281 30.0599 133.901 29.5442C135.143 28.5195 137.084 28.0059 139.724 28.0035H140.119C141.474 27.9699 142.83 28.0954 144.146 28.3765C144.935 28.54 145.68 28.8283 146.35 29.2272V32.4358ZM164.847 39.2819H159.795V33.0774C159.846 32.6257 159.692 32.1744 159.369 31.8201C158.985 31.5417 158.491 31.4076 157.995 31.447H157.6C156.571 31.447 155.843 31.6299 155.409 31.988C154.975 32.3462 154.767 32.9431 154.767 33.7602V39.2781H149.702V23.6644H154.754V28.8877C155.707 28.2957 157.035 27.9997 158.739 27.9997H159.131C162.93 27.9997 164.831 29.691 164.831 33.0737L164.847 39.2819Z" fill="#17173B"/>
<path d="M99.0919 28.7537H94.7961C94.5633 28.7336 94.3308 28.7954 94.1497 28.9253C94.0019 29.0844 93.9316 29.2882 93.954 29.4924V31.1676C93.9316 31.3718 94.0019 31.5757 94.1497 31.7347C94.3317 31.8632 94.5634 31.9248 94.7961 31.9063H99.0919C99.9425 31.9063 100.534 31.7832 100.836 31.5332C101.002 31.3654 101.127 31.1696 101.204 30.958C101.28 30.7464 101.307 30.5231 101.282 30.3021C101.309 30.0843 101.283 29.8641 101.206 29.6558C101.129 29.4475 101.003 29.2558 100.836 29.0933C100.529 28.8694 99.9425 28.7537 99.0919 28.7537Z" fill="#17173B"/>
<path d="M207.381 39.2832V31.6014C207.385 31.5304 207.361 31.4603 207.312 31.4037C207.29 31.3798 207.263 31.3607 207.231 31.3478C207.199 31.3348 207.164 31.3285 207.129 31.329C206.998 31.329 206.887 31.4185 206.793 31.6014L203.872 39.2832H198.768L195.624 31.6014C195.548 31.4372 195.437 31.3551 195.288 31.3551C195.139 31.3551 195.093 31.4372 195.093 31.6014V39.2832H189.479V24.8037H197.113L201.013 33.6683C201.028 33.7312 201.066 33.7877 201.123 33.8285C201.18 33.8693 201.251 33.8917 201.324 33.8922C201.454 33.8922 201.547 33.8175 201.604 33.6683L205.479 24.8037H212.986V39.2832H207.381Z" fill="#17173B"/>
<path d="M216.845 37.9846C215.616 36.9735 215.003 35.6267 215.003 33.9329V33.5411C214.97 32.7923 215.12 32.0459 215.442 31.3518C215.763 30.6577 216.25 30.0317 216.87 29.5155C218.118 28.4908 220.06 27.9771 222.697 27.9746H223.11C225.73 27.9746 227.657 28.4883 228.893 29.5155C229.509 30.0336 229.992 30.6603 230.312 31.3542C230.631 32.0482 230.777 32.7936 230.744 33.5411V33.9329C230.744 35.6267 230.132 36.9735 228.906 37.9846C227.682 38.9956 225.751 39.4993 223.11 39.4993H222.684C220.013 39.4993 218.067 38.9945 216.845 37.9846ZM224.985 35.511C225.223 35.3068 225.406 35.06 225.524 34.7876C225.642 34.5153 225.692 34.2237 225.669 33.9329V33.5411C225.687 33.2533 225.633 32.9658 225.512 32.6979C225.392 32.4301 225.205 32.1883 224.969 31.9891C224.449 31.595 223.775 31.3918 223.088 31.422H222.684C221.989 31.3945 221.307 31.5969 220.774 31.9891C220.528 32.184 220.336 32.4244 220.209 32.6928C220.083 32.9613 220.026 33.251 220.043 33.5411V33.9329C220.017 34.2283 220.069 34.5251 220.193 34.8004C220.317 35.0758 220.512 35.3227 220.761 35.5222C221.308 35.8965 221.992 36.0846 222.684 36.052H223.11C223.789 36.0825 224.458 35.8896 224.985 35.511Z" fill="#17173B"/>
<path d="M247.891 33.0524V39.2568H242.838V33.0524C242.888 32.6006 242.736 32.1494 242.413 31.795C242.028 31.516 241.533 31.382 241.035 31.422H240.643C239.615 31.422 238.883 31.6048 238.453 31.963C238.024 32.3211 237.807 32.918 237.807 33.7388V39.2531H232.758V28.2209H237.811V28.8626C238.767 28.2694 240.095 27.9746 241.8 27.9746H242.191C245.991 27.9771 247.891 29.6697 247.891 33.0524Z" fill="#17173B"/>
<path d="M262.508 33.0487C263.384 33.1653 264.2 33.5082 264.851 34.0335C265.335 34.5138 265.586 35.1398 265.553 35.7796C265.579 36.4609 265.39 37.1351 265.005 37.7271C264.639 38.252 263.905 38.6785 262.802 39.0068C261.698 39.3352 260.115 39.4993 258.051 39.4993H257.46C255.852 39.4993 254.33 39.4396 252.901 39.3277C251.97 39.2803 251.044 39.1643 250.135 38.9807V35.5595C251.184 35.7187 252.243 35.8208 253.304 35.8654C255.104 35.9885 256.477 36.052 257.434 36.052H258.051C259.525 36.052 260.264 35.8144 260.267 35.3394C260.267 34.9116 259.518 34.6977 258.022 34.6977H256.32C254.014 34.6977 252.363 34.4602 251.364 33.9851C250.361 33.5075 249.864 32.7017 249.864 31.5712C249.846 31.0178 250.008 30.4712 250.33 29.9955C250.654 29.5199 251.125 29.1347 251.688 28.885C252.904 28.2806 254.822 27.9771 257.443 27.9746H258.051C259.4 27.9746 260.714 28.0343 261.994 28.1463C263.274 28.2582 264.18 28.3701 264.702 28.4672V31.9144C264.102 31.8324 263.062 31.7304 261.585 31.6085C260.108 31.4867 258.93 31.4245 258.051 31.422H257.413C256.749 31.3989 256.083 31.4439 255.431 31.5563C255.069 31.6496 254.886 31.7988 254.886 32.0152C254.886 32.2315 255.061 32.4405 255.418 32.5561C256.069 32.701 256.742 32.7589 257.413 32.7278H258.051C259.545 32.6997 261.039 32.8073 262.508 33.0487Z" fill="#17173B"/>
<path d="M270.846 38.6676C270.191 38.093 269.862 37.2474 269.862 36.1307V31.6984H267.561V28.2511H269.021C269.286 28.2681 269.55 28.212 269.777 28.0906C269.975 27.9428 270.105 27.7374 270.144 27.5124C270.274 27.087 270.461 26.1841 270.705 24.8037H274.916V28.2511H279.994V31.6984H274.907V35.0972C274.877 35.2412 274.889 35.3895 274.939 35.5287C274.99 35.668 275.08 35.794 275.201 35.8956C275.518 36.0605 275.887 36.1347 276.255 36.1083C277.028 36.1105 277.801 36.0768 278.569 36.0075C279.054 35.9721 279.537 35.9148 280.015 35.8359V38.7908C279.305 38.9967 278.576 39.1527 277.837 39.2571C276.621 39.45 275.386 39.5412 274.15 39.5295C272.593 39.5295 271.492 39.2422 270.846 38.6676Z" fill="#17173B"/>
<path d="M287.065 34.6598C287.119 34.9122 287.248 35.1479 287.437 35.3439C287.626 35.5399 287.87 35.6899 288.145 35.779C288.952 36.0225 289.805 36.1314 290.659 36.1C292.467 36.1054 294.27 35.9404 296.038 35.6074V38.8086C295.328 39.0212 294.117 39.5548 290.659 39.5548H290.263C287.363 39.5548 285.263 39.0573 283.964 38.0624C282.665 37.0675 282.015 35.7082 282.011 33.9845V33.5928C282.001 32.6032 282.319 31.6321 282.926 30.7984C283.575 29.9189 284.493 29.2179 285.576 28.7763C286.867 28.2529 288.28 27.9976 289.701 28.0301H290.097C292.756 28.0301 294.646 28.5847 295.767 29.694C296.892 30.7895 297.5 32.2193 297.467 33.6935V34.6785L287.065 34.6598ZM288.719 31.2013C288.377 31.3365 288.071 31.5336 287.821 31.7796C287.655 31.9335 287.555 32.1345 287.541 32.3467C287.534 32.3935 287.539 32.4413 287.556 32.486C287.574 32.5308 287.603 32.5714 287.642 32.6047C287.679 32.6379 287.727 32.6629 287.777 32.6778C287.828 32.6925 287.883 32.6967 287.936 32.6899H291.386C291.837 32.6899 292.062 32.5655 292.062 32.3169C292.049 32.1398 291.993 31.9672 291.898 31.8103C291.804 31.6535 291.673 31.5159 291.513 31.4065C291.115 31.1005 290.596 30.9414 290.067 30.9625C289.61 30.9557 289.157 31.0373 288.741 31.2013H288.719Z" fill="#17173B"/>
<path d="M304.545 28.2432V29.2282C305.033 28.817 305.612 28.4982 306.247 28.2918C306.887 28.101 307.556 27.9941 308.232 27.9746C309.229 28.0087 310.195 28.2809 311.027 28.7619V32.1831C310.491 31.6794 309.058 31.2653 308.232 31.2653C306.17 31.2653 305.625 31.8547 305.196 32.2315C304.766 32.6084 304.55 33.2501 304.55 34.1529V39.2755H299.475V28.2432H304.545Z" fill="#17173B"/>
<path d="M56.0041 41.1671C55.9898 41.1595 55.9741 41.1545 55.9577 41.1525C55.9411 41.1504 55.9243 41.1512 55.9083 41.155C55.8922 41.1586 55.8772 41.1652 55.8641 41.1741C55.851 41.1831 55.84 41.1943 55.8319 41.2071C55.7215 41.3723 55.6274 41.5432 55.5072 41.6999C55.387 41.8565 55.2636 42.0133 55.1272 42.1643L54.7148 42.6059L54.273 43.0247C53.6751 43.5702 53.023 44.0678 52.3244 44.5118C51.6434 44.9618 50.9223 45.3629 50.1678 45.7112C49.7944 45.8821 49.4111 46.0359 49.0343 46.1926C48.6414 46.3179 48.2614 46.4775 47.8652 46.5687C46.6576 46.8899 45.3634 46.857 44.179 46.4747C42.2564 45.8565 39.6517 44.8394 38.6319 43.7596C38.0862 43.1899 37.8621 42.3893 37.6251 41.5489C37.3587 40.6117 37.0599 39.5547 36.235 38.6773C35.7424 38.1299 35.1254 37.6786 34.4232 37.3519C33.7208 37.0252 32.9486 36.8304 32.1559 36.7799C31.5561 36.7541 30.9569 36.8395 30.3973 37.0304C29.8377 37.2214 29.3304 37.5136 28.9081 37.8881C28.2326 38.4966 27.7207 39.2299 27.41 40.0344C27.0992 40.8389 26.9975 41.6941 27.1121 42.5374C27.2406 43.6203 27.6367 44.6656 28.2728 45.6003C28.9088 46.5352 29.7695 47.3371 30.795 47.9504C33.3932 49.4973 36.4851 49.9446 39.2067 49.9446C43.9907 49.9446 47.193 48.8734 48.57 48.2353L49.8366 47.6655C50.236 47.4433 50.6356 47.224 51.0187 46.9875C51.7695 46.4995 52.4734 45.9583 53.1233 45.3692C53.761 44.7824 54.3401 44.1485 54.8543 43.4748C55.3877 42.8139 55.7906 42.0791 56.0463 41.3011C56.0571 41.2778 56.0587 41.252 56.0512 41.2278C56.0435 41.2036 56.0269 41.1823 56.0041 41.1671ZM32.237 46.11C31.5165 45.6836 30.9106 45.1244 30.4618 44.4715C30.0131 43.8185 29.7322 43.0875 29.6388 42.3295C29.5619 41.8123 29.6175 41.2866 29.8018 40.7907C29.9862 40.295 30.2944 39.8414 30.7041 39.4635C30.864 39.3173 31.0562 39.2012 31.2689 39.1223C31.4816 39.0434 31.7105 39.0035 31.9415 39.0049H32.0325C32.4667 39.0497 32.886 39.171 33.2655 39.3614C33.6451 39.5518 33.9768 39.8074 34.2409 40.1131C34.6923 40.5917 34.8905 41.2896 35.1177 42.1073C35.4036 43.0873 35.7284 44.2269 36.6443 45.1927C37.5601 46.1584 39.0086 46.9277 40.5026 47.5629C40.5175 47.5672 40.5301 47.576 40.5381 47.5879C40.5462 47.5996 40.5491 47.6137 40.5464 47.6272C40.5436 47.6407 40.5353 47.653 40.5231 47.6615C40.5108 47.6701 40.4955 47.6746 40.4799 47.6741C37.8881 47.8165 34.6988 47.5857 32.237 46.11Z" fill="#17173B"/>
<path d="M18.7436 36.3021C18.9255 34.3079 19.5847 29.0261 21.6308 24.2C24.4661 17.5108 29.0649 11.1606 30.7245 10.8985C31.8937 10.7132 24.9858 22.7186 27.1195 23.6473C28.7823 24.3709 30.9519 17.9979 36.4373 11.3088C41.3836 5.27472 50.0779 -0.554138 50.4253 -0.371808C50.7729 -0.189478 44.0338 6.69348 40.588 12.528C38.3567 16.3 38.4542 18.5108 39.5747 19.3312C40.6951 20.1518 44.3748 16.6789 48.2364 14.0608C52.387 11.2432 56.7358 10.4028 57.0053 10.6421C57.1969 10.8272 53.2379 12.2887 49.6102 15.5422C48.5093 16.5308 44.9594 19.3341 45.872 20.2315C46.947 21.2856 53.5302 22.3283 51.5881 22.6873C51.1562 22.7699 46.5314 22.5191 46.0864 22.5021C42.3222 22.3596 34.4984 23.9721 29.0032 27.3167C23.508 30.6613 18.3247 40.8405 18.7436 36.3021Z" fill="#17173B"/>
<path d="M39.5804 55.7836C32.1625 55.7836 24.9655 52.4561 21.1722 47.3794C20.5332 47.5882 19.8566 47.6944 19.1748 47.6927C17.3983 47.6927 15.7061 46.8381 14.4136 45.2854C13.3274 43.9972 12.7166 42.4484 12.663 40.8468C12.663 37.7615 14.8 36.0037 18.5089 36.0037C18.6736 36.0037 18.8391 36.0094 19.0059 36.0208C20.1556 32.3486 24.3874 23.9129 39.2426 21.2891C44.8742 20.2949 50.5642 21.2436 54.8611 23.8901C59.1578 26.5367 61.9086 30.7418 62.8018 36.0379C63.5097 40.2344 61.9411 44.539 58.3816 48.1571C53.7666 52.8578 46.5566 55.7836 39.5804 55.7836ZM21.7567 44.0747C21.8758 44.0748 21.9945 44.0862 22.1108 44.1089C22.3493 44.1535 22.5739 44.2432 22.7692 44.3715C22.9643 44.4999 23.1252 44.664 23.2409 44.8524C26.1639 49.6129 32.8802 52.9347 39.5901 52.9347C45.5563 52.9347 51.9771 50.3252 55.9491 46.2882C58.0243 44.1772 60.3433 40.7585 59.6158 36.4481C58.8557 31.944 56.5726 28.4028 53.0196 26.2121C49.4666 24.0212 44.6729 23.232 39.9117 24.0754C26.6381 26.4171 23.0526 33.8157 22.127 36.8955C22.0328 37.2059 21.9516 37.5336 21.8866 37.8697C21.8458 38.0812 21.7529 38.2822 21.6144 38.4589C21.4758 38.6356 21.295 38.7835 21.0845 38.8925C20.8749 39.0026 20.6405 39.0712 20.3975 39.0934C20.1545 39.1155 19.909 39.0907 19.6781 39.0207C19.3102 38.9095 18.9241 38.8517 18.5349 38.8497C16.3557 38.8497 15.9367 39.5848 15.9367 40.844C15.9367 42.5534 17.5607 44.8324 19.1845 44.8324C19.7445 44.8337 20.2888 44.6702 20.7304 44.3681C21.0263 44.1739 21.3871 44.0707 21.7567 44.0747Z" fill="#17173B"/>
<path d="M32.26 27.0928C34.029 27.8054 35.856 28.4015 37.7259 28.8762C39.5268 29.3257 41.3781 29.6018 43.2471 29.6995L43.9422 29.7337C44.1759 29.748 44.4066 29.7337 44.6404 29.7337C45.1048 29.7536 45.5693 29.7195 46.0369 29.7138C46.969 29.671 47.9011 29.5941 48.8397 29.4773C50.7647 29.2106 52.6668 28.8299 54.533 28.3378C53.0133 29.5483 51.2128 30.456 49.2555 30.9986C48.2679 31.2771 47.2537 31.4773 46.2253 31.5969C45.1899 31.707 44.1453 31.7347 43.1043 31.6795C41.0224 31.5692 38.9838 31.1099 37.0991 30.3262C35.2348 29.5735 33.5826 28.4694 32.26 27.0928Z" fill="#17173B"/>
<path d="M33.1578 31.0685C33.1474 31.0638 33.1357 31.0617 33.1239 31.0623C33.1122 31.0631 33.101 31.0665 33.0913 31.0723C33.0816 31.0781 33.074 31.0861 33.0691 31.0955C33.0642 31.1049 33.0623 31.1153 33.0636 31.1255C33.2357 33.3761 36.9609 37.6495 42.4821 38.1566C49.3868 38.7919 54.3202 33.8832 54.7943 30.9431C54.7968 30.9323 54.7956 30.9211 54.7909 30.9108C54.7862 30.9005 54.7782 30.8917 54.7678 30.8853C54.7576 30.879 54.7454 30.8754 54.7327 30.875C54.7201 30.8747 54.7077 30.8776 54.6969 30.8833C53.9207 31.248 49.3446 33.2849 44.0573 33.114C37.997 32.9175 33.8464 31.3449 33.1578 31.0685Z" fill="#17173B"/>
</g>
</g>
<defs>
<clipPath id="clip0_331_626">
<rect width="317.909" height="57.2" fill="white" transform="translate(0 0.12207)"/>
</clipPath>
</defs>
</svg>
