<svg width="80" height="80" viewBox="0 0 80 80" fill="none" xmlns="http://www.w3.org/2000/svg">
<path d="M26.6677 36.6667C30.421 36.6667 33.881 37.9067 36.6677 40C34.5977 41.5525 32.9177 43.5655 31.7605 45.8798C30.6034 48.194 30.001 50.7459 30.001 53.3333C30.001 58.7867 32.621 63.6267 36.6677 66.6667C34.555 68.2512 32.096 69.311 29.4933 69.7587C26.8907 70.2065 24.2189 70.0293 21.6982 69.2419C19.1774 68.4545 16.8799 67.0793 14.9949 65.2298C13.1099 63.3802 11.6914 61.1091 10.8563 58.6038C10.0211 56.0985 9.79334 53.4305 10.1916 50.8199C10.5899 48.2092 11.6028 45.7305 13.1469 43.5882C14.6911 41.4458 16.7222 39.701 19.073 38.4976C21.4237 37.2942 24.0268 36.6667 26.6677 36.6667ZM66.6676 43.3333C68.5248 45.8095 69.6557 48.7539 69.9336 51.8366C70.2116 54.9193 69.6256 58.0185 68.2414 60.7869C66.8572 63.5553 64.7294 65.8836 62.0965 67.5109C59.4636 69.1381 56.4295 70 53.3343 70C50.2391 70 47.2051 69.1381 44.5721 67.5109C41.9392 65.8836 39.8114 63.5553 38.4272 60.7869C37.043 58.0185 36.457 54.9193 36.735 51.8366C37.013 48.7539 38.1439 45.8095 40.001 43.3333C41.5534 45.4033 43.5665 47.0833 45.8808 48.2405C48.195 49.3976 50.7469 50 53.3343 50C55.9217 50 58.4736 49.3976 60.7879 48.2405C63.1021 47.0833 65.1152 45.4033 66.6676 43.3333ZM53.3343 10C55.9752 10 58.5782 10.6276 60.929 11.8309C63.2797 13.0343 65.3109 14.7791 66.855 16.9215C68.3992 19.0639 69.4121 21.5425 69.8104 24.1532C70.2086 26.7639 69.9808 29.4318 69.1457 31.9371C68.3106 34.4425 66.8921 36.7135 65.0071 38.5631C63.1221 40.4127 60.8245 41.7878 58.3038 42.5752C55.783 43.3627 53.1113 43.5398 50.5086 43.0921C47.906 42.6443 45.447 41.5845 43.3343 40C45.4043 38.4476 47.0843 36.4345 48.2414 34.1202C49.3986 31.806 50.001 29.2541 50.001 26.6667C50.001 24.0793 49.3986 21.5274 48.2414 19.2131C47.0843 16.8989 45.4043 14.8858 43.3343 13.3333C46.121 11.24 49.581 10 53.3343 10ZM26.6677 10C29.7628 10 32.7969 10.8619 35.4298 12.4892C38.0628 14.1164 40.1906 16.4447 41.5748 19.2131C42.959 21.9815 43.5449 25.0807 43.267 28.1634C42.989 31.2461 41.8581 34.1905 40.001 36.6667C38.4485 34.5967 36.4355 32.9167 34.1212 31.7596C31.807 30.6024 29.2551 30 26.6677 30C24.0802 30 21.5283 30.6024 19.2141 31.7596C16.8998 32.9167 14.8868 34.5967 13.3343 36.6667C11.4772 34.1905 10.3463 31.2461 10.0683 28.1634C9.79036 25.0807 10.3763 21.9815 11.7605 19.2131C13.1447 16.4447 15.2725 14.1164 17.9055 12.4892C20.5384 10.8619 23.5725 10 26.6677 10Z" fill="#060606" fill-opacity="0.2"/>
</svg>
