<svg width="301" height="52" viewBox="0 0 301 52" fill="none" xmlns="http://www.w3.org/2000/svg">
<g clip-path="url(#clip0_331_492)">
<mask id="mask0_331_492" style="mask-type:luminance" maskUnits="userSpaceOnUse" x="0" y="0" width="300" height="51">
<path d="M299.091 0.349609H0.572693V50.4237H299.091V0.349609Z" fill="white"/>
</mask>
<g mask="url(#mask0_331_492)">
<path d="M62.9427 21.0755C62.0579 21.0379 61.1878 21.3076 60.4835 21.8378C60.1686 22.0918 59.9184 22.4152 59.753 22.7821C59.5874 23.1487 59.5113 23.5488 59.5307 23.9497C59.4845 24.7161 59.7349 25.471 60.2316 26.0619C60.7408 26.5979 61.3771 27.0004 62.0834 27.2331C62.9079 27.5223 63.7481 27.7654 64.6002 27.9614C65.5109 28.1743 66.4217 28.4345 67.3323 28.7418C68.2082 29.0344 69.0512 29.4149 69.8481 29.8779C70.6385 30.3523 71.2797 31.0345 71.6999 31.848C72.1926 32.8219 72.4335 33.9012 72.4007 34.9893C72.4038 35.9889 72.1852 36.9769 71.7604 37.8842C71.3357 38.7915 70.7148 39.5962 69.9415 40.2413C68.124 41.7703 65.784 42.5569 63.399 42.4407C61.0472 42.5505 58.7257 41.8824 56.8023 40.5424C55.9761 39.9199 55.3155 39.1087 54.8773 38.1783C54.439 37.2481 54.2364 36.2266 54.2865 35.2018H59.6794C59.8705 37.3785 61.1287 38.4668 63.4542 38.4668C64.4455 38.5207 65.421 38.2039 66.1864 37.5795C66.5197 37.2837 66.7828 36.9187 66.9569 36.5108C67.131 36.1029 67.2117 35.6621 67.1934 35.2199C67.2007 34.7507 67.0815 34.2881 66.8475 33.8796C66.6137 33.4709 66.274 33.1314 65.863 32.8955C64.8746 32.2869 63.7853 31.8547 62.6452 31.6186C61.387 31.3345 60.123 30.9915 58.8532 30.5892C57.5967 30.1963 56.4764 29.4648 55.6182 28.4772C54.6901 27.3546 54.2162 25.9325 54.2878 24.4851C54.2501 23.4579 54.4546 22.436 54.8848 21.5C55.3153 20.564 55.9599 19.7393 56.7678 19.091C58.583 17.6886 60.8452 16.9712 63.148 17.0676C65.3767 16.9606 67.5794 17.5775 69.419 18.8239C70.2312 19.4633 70.8858 20.276 71.3342 21.2011C71.7825 22.1261 72.0125 23.1393 72.0073 24.1647H66.4741C66.4198 23.3051 66.0338 22.4989 65.3958 21.9119C64.7165 21.3338 63.8387 21.0345 62.9427 21.0755Z" fill="#171650"/>
<path d="M84.7652 42.4747C83.4533 42.5234 82.1458 42.3008 80.9263 41.821C79.7068 41.3413 78.6024 40.6152 77.684 39.689C76.756 38.7024 76.0365 37.5431 75.5676 36.279C75.0984 35.0148 74.8891 33.6711 74.9518 32.3262C74.8871 30.985 75.0974 29.6445 75.5701 28.3854C76.0427 27.1262 76.768 25.9743 77.7024 24.9984C78.6336 24.0815 79.7462 23.3641 80.9711 22.8909C82.1958 22.4175 83.5062 22.1987 84.8205 22.248C86.1365 22.2006 87.4488 22.4133 88.6802 22.8732C89.9119 23.3333 91.0381 24.0314 91.9926 24.9268C92.9381 25.8607 93.6759 26.9789 94.1587 28.2101C94.6415 29.4414 94.8592 30.7585 94.7973 32.0774C94.8004 32.7189 94.7523 33.3598 94.6535 33.9939H80.1247C80.1944 35.1646 80.708 36.2668 81.5633 37.0807C82.4306 37.8723 83.5798 38.2933 84.7602 38.2519C85.5446 38.2923 86.3246 38.1142 87.0114 37.7377C87.698 37.3611 88.2634 36.8017 88.6432 36.123H94.11C93.5466 37.9755 92.3693 39.5875 90.7668 40.7001C89.0119 41.9142 86.907 42.5365 84.7652 42.4747ZM88.0851 27.6422C87.1882 26.8618 86.0267 26.4437 84.8316 26.4708C83.6568 26.4352 82.5148 26.8558 81.6506 27.6422C80.7766 28.4674 80.2339 29.5764 80.1222 30.7652H89.5407C89.5299 30.1734 89.3949 29.5902 89.1444 29.0525C88.8938 28.5148 88.5331 28.0354 88.0851 27.6422Z" fill="#171650"/>
<path d="M99.2148 39.7063C97.4522 37.655 96.4848 35.0525 96.4848 32.3628C96.4848 29.673 97.4522 27.0705 99.2148 25.0194C100.136 24.0982 101.242 23.3764 102.461 22.8999C103.68 22.4234 104.987 22.2027 106.297 22.2518C108.459 22.1763 110.588 22.7859 112.373 23.9913C114.03 25.192 115.192 26.944 115.643 28.924H110.179C109.897 28.1502 109.363 27.4903 108.66 27.0474C107.958 26.6046 107.127 26.4036 106.297 26.476C105.639 26.4473 104.983 26.5757 104.385 26.8504C103.788 27.125 103.266 27.5379 102.864 28.0539C102.055 29.3491 101.626 30.8409 101.626 32.3628C101.626 33.8846 102.055 35.3766 102.864 36.6718C103.266 37.1878 103.788 37.6007 104.385 37.8753C104.983 38.1502 105.639 38.2784 106.297 38.2497C107.131 38.3133 107.962 38.1045 108.663 37.6558C109.365 37.207 109.897 36.5432 110.179 35.7662H115.646C115.139 37.7255 113.967 39.4542 112.326 40.6639C110.574 41.9051 108.456 42.5415 106.301 42.4737C104.99 42.5234 103.683 42.303 102.463 41.8266C101.243 41.3501 100.137 40.6279 99.2148 39.7063Z" fill="#171650"/>
<path d="M120.099 39.6707C119.124 38.7122 118.362 37.5643 117.861 36.2998C117.36 35.0352 117.13 33.6817 117.187 32.3248C117.129 30.9698 117.362 29.6179 117.87 28.358C118.379 27.0981 119.152 25.9585 120.138 25.014C122.147 23.2314 124.753 22.2451 127.454 22.2451C130.155 22.2451 132.761 23.2314 134.77 25.014C136.666 26.996 137.721 29.6199 137.718 32.346C137.714 35.0724 136.653 37.6935 134.751 39.6707C133.775 40.5953 132.622 41.3195 131.36 41.8008C130.099 42.2821 128.752 42.5111 127.4 42.4747C126.055 42.5147 124.715 42.2873 123.46 41.8056C122.206 41.3239 121.063 40.5978 120.099 39.6707ZM127.396 38.2507C128.079 38.2573 128.757 38.1234 129.385 37.8574C130.013 37.5917 130.578 37.1997 131.044 36.7067C132.031 35.4645 132.569 33.9322 132.572 32.3535C132.576 30.7749 132.044 29.2403 131.063 27.994C130.595 27.5037 130.029 27.1148 129.4 26.8521C128.772 26.5896 128.095 26.4589 127.413 26.4683C126.736 26.4563 126.064 26.5862 125.442 26.849C124.819 27.1121 124.26 27.5023 123.801 27.994C122.844 29.2534 122.327 30.7849 122.327 32.3589C122.327 33.9328 122.844 35.4643 123.801 36.7236C124.257 37.2144 124.813 37.604 125.433 37.8673C126.052 38.1303 126.721 38.2611 127.396 38.2507Z" fill="#171650"/>
<path d="M145.908 22.5312V25.4758C146.529 24.4204 147.438 23.558 148.531 22.9869C149.624 22.4161 150.857 22.1592 152.091 22.246C153.125 22.209 154.156 22.3878 155.116 22.7701C156.076 23.1524 156.944 23.7297 157.663 24.4647C159.179 26.1541 159.955 28.3681 159.82 30.6211V42.1874H154.787V31.3289C154.876 30.0439 154.45 28.7759 153.6 27.7979C153.178 27.3817 152.672 27.0577 152.115 26.8469C151.557 26.6358 150.961 26.5426 150.366 26.5732C149.767 26.5435 149.169 26.6373 148.608 26.848C148.048 27.0589 147.539 27.3825 147.112 27.7979C146.686 28.2796 146.361 28.8392 146.154 29.4451C145.948 30.051 145.864 30.691 145.908 31.3289V42.1874H140.84V22.5239L145.908 22.5312Z" fill="#171650"/>
<path d="M165.411 39.618C163.684 37.5781 162.736 35.0048 162.732 32.3463C162.729 29.6877 163.67 27.1122 165.392 25.068C166.249 24.1467 167.296 23.4177 168.463 22.931C169.63 22.4443 170.889 22.2111 172.155 22.2473C173.405 22.1984 174.645 22.4825 175.745 23.0693C176.846 23.6561 177.766 24.5241 178.41 25.5828V15.9307H183.443V42.1901H178.41V38.8896C177.789 39.9941 176.876 40.9111 175.768 41.5426C174.66 42.1739 173.399 42.4959 172.119 42.474C170.859 42.5031 169.607 42.2629 168.449 41.77C167.291 41.277 166.255 40.543 165.411 39.618ZM176.825 36.6016C177.846 35.4185 178.406 33.9153 178.406 32.3611C178.406 30.8071 177.846 29.3039 176.825 28.1208C176.345 27.6337 175.772 27.2463 175.138 26.9811C174.504 26.7159 173.823 26.5783 173.135 26.5766C172.447 26.5749 171.765 26.7091 171.13 26.971C170.495 27.2332 169.92 27.618 169.438 28.1027C168.899 28.6641 168.483 29.3284 168.214 30.0544C167.945 30.7807 167.829 31.5536 167.874 32.3255C167.831 33.104 167.949 33.8828 168.221 34.6148C168.493 35.3467 168.913 36.0165 169.455 36.5835C169.93 37.0756 170.501 37.4675 171.134 37.736C171.766 38.0045 172.447 38.1437 173.136 38.1454C173.825 38.1472 174.507 38.0112 175.14 37.746C175.774 37.4806 176.347 37.0914 176.825 36.6016Z" fill="#171650"/>
<path d="M204.36 17.5996H207.632V42.1923H204.36L191.204 22.6744V42.1923H187.933V17.5996H191.204L204.36 37.1175V17.5996Z" fill="#171650"/>
<path d="M213.527 39.6523C211.696 37.657 210.727 35.0327 210.831 32.3414C210.773 31.0254 210.979 29.7112 211.44 28.4746C211.898 27.2381 212.603 26.1039 213.51 25.1375C214.375 24.2379 215.423 23.5282 216.584 23.0542C217.745 22.5805 218.993 22.3532 220.251 22.3871C221.801 22.3534 223.328 22.7598 224.653 23.5584C225.871 24.297 226.861 25.3528 227.51 26.6099V22.7076H230.818V42.1891H227.51V38.2149C226.866 39.4901 225.876 40.5646 224.653 41.3199C223.334 42.1298 221.803 42.5433 220.251 42.5096C218.987 42.5367 217.734 42.2956 216.574 41.8025C215.415 41.3095 214.375 40.5763 213.527 39.6523ZM225.553 37.7539C226.818 36.2751 227.512 34.402 227.512 32.4664C227.512 30.5309 226.818 28.6579 225.553 27.1792C224.952 26.5429 224.222 26.0373 223.411 25.6953C222.6 25.353 221.726 25.1818 220.844 25.1922C219.968 25.1793 219.099 25.3424 218.288 25.672C217.479 26.0015 216.746 26.4903 216.135 27.1087C215.465 27.8005 214.945 28.6204 214.608 29.518C214.271 30.4157 214.123 31.3721 214.175 32.3281C214.09 34.3018 214.8 36.2285 216.152 37.6859C216.748 38.3286 217.47 38.843 218.277 39.1973C219.082 39.5515 219.954 39.7378 220.836 39.7445C221.718 39.7512 222.593 39.5783 223.404 39.2364C224.214 38.8944 224.946 38.391 225.551 37.7573L225.553 37.7539Z" fill="#171650"/>
<path d="M241.781 39.5639H244.477V42.1894H241.17C237.742 42.1894 236.03 40.5215 236.03 37.186V25.3333H233.476V22.7079H236.03V17.8818H239.335V22.7079H244.44V25.3333H239.335V37.186C239.267 37.8468 239.46 38.5082 239.876 39.031C240.417 39.444 241.101 39.6348 241.781 39.5639Z" fill="#171650"/>
<path d="M261.088 22.7082H264.358V42.1897H261.088V39.0666C260.456 40.1838 259.517 41.1006 258.376 41.7101C257.238 42.3197 255.946 42.5968 254.654 42.5088C253.643 42.536 252.637 42.3596 251.697 41.9904C250.757 41.6214 249.904 41.0671 249.19 40.3616C248.425 39.5469 247.836 38.5873 247.46 37.5411C247.083 36.4947 246.925 35.3839 246.996 34.2757V22.707H250.232V33.7428C250.12 35.3567 250.642 36.9512 251.688 38.1963C252.766 39.1883 254.186 39.7399 255.661 39.7399C257.134 39.7399 258.554 39.1883 259.632 38.1963C260.68 36.9512 261.2 35.3567 261.088 33.7428V22.7082Z" fill="#171650"/>
<path d="M272.122 22.7094V26.0097C272.628 24.8726 273.474 23.916 274.548 23.2687C275.621 22.6216 276.869 22.3148 278.125 22.3901V25.756H277.264C276.571 25.7077 275.875 25.7974 275.217 26.0199C274.56 26.2423 273.953 26.593 273.435 27.0512C272.426 28.324 271.956 29.9339 272.124 31.5423V42.1884H268.852V22.7094H272.122Z" fill="#171650"/>
<path d="M289.449 42.5053C288.165 42.5521 286.886 42.3294 285.698 41.8524C284.507 41.3753 283.433 40.6546 282.547 39.7379C280.715 37.7438 279.758 35.1155 279.885 32.4271C279.822 31.0959 280.028 29.7653 280.492 28.5132C280.954 27.2612 281.665 26.1127 282.581 25.1346C284.457 23.3926 286.926 22.4105 289.501 22.3843C292.074 22.3579 294.566 23.2891 296.477 24.9926C297.344 25.8705 298.022 26.9126 298.47 28.0562C298.917 29.1998 299.127 30.4212 299.083 31.6467C299.087 32.2882 299.038 32.9292 298.938 33.5632H283.23C283.23 35.2722 283.893 36.9162 285.081 38.1586C285.655 38.7189 286.337 39.1574 287.088 39.4473C287.839 39.7373 288.642 39.8725 289.449 39.8446C290.645 39.8837 291.826 39.5753 292.847 38.9573C293.744 38.3938 294.453 37.578 294.878 36.6146H298.401C297.783 38.3098 296.662 39.7816 295.183 40.8376C293.507 41.996 291.493 42.5817 289.449 42.5053ZM293.875 26.7259C292.693 25.6482 291.142 25.0467 289.534 25.04C287.924 25.0333 286.37 25.6216 285.176 26.6895C283.976 27.9008 283.294 29.5207 283.271 31.2145H295.672C295.697 30.3864 295.549 29.5621 295.239 28.7921C294.93 28.0221 294.464 27.3228 293.871 26.7367L293.875 26.7259Z" fill="#171650"/>
<path d="M38.7134 11.3381L6.16768 11.1572C5.1863 11.1599 4.2228 11.4166 3.37325 11.9016C2.52371 12.3866 1.81784 13.083 1.32603 13.9214C0.834217 14.7597 0.573684 15.7107 0.570375 16.6795C0.567066 17.6483 0.821119 18.601 1.30719 19.4426L17.4233 47.627C17.901 48.4707 18.5968 49.1741 19.4399 49.6654C20.2829 50.1567 21.243 50.4184 22.2219 50.424C23.2009 50.4294 24.1638 50.1783 25.0124 49.6962C25.8609 49.2143 26.5649 48.5187 27.0521 47.6805L43.483 19.677C43.9783 18.8404 44.2429 17.8903 44.2503 16.9214C44.2578 15.9525 44.0076 14.9986 43.525 14.1548C43.0423 13.3111 42.3442 12.607 41.4998 12.1128C40.6557 11.6185 39.6949 11.3514 38.7134 11.3381Z" fill="#14558C"/>
<path d="M44.3462 11.0408L26.6404 0.844888C26.0738 0.521768 25.4305 0.352254 24.7763 0.353523C24.1218 0.35479 23.4793 0.526798 22.9141 0.85211C22.3488 1.17742 21.8806 1.64449 21.5571 2.20597C21.2335 2.76744 21.066 3.40338 21.0715 4.04933V24.4291C21.066 25.0749 21.2335 25.7106 21.5571 26.2718C21.8806 26.8332 22.3486 27.3001 22.9139 27.6254C23.479 27.9507 24.1213 28.1226 24.7753 28.1242C25.4295 28.1255 26.0724 27.9562 26.639 27.6335L44.345 17.4436C44.9089 17.115 45.3763 16.647 45.7011 16.0856C46.026 15.5243 46.1968 14.889 46.1968 14.2425C46.197 13.5961 46.0263 12.9608 45.7018 12.3993C45.3773 11.8378 44.9101 11.3696 44.3462 11.0408Z" fill="black"/>
<path d="M44.3419 11.0418L26.6361 0.845865C26.0695 0.522746 25.4263 0.353232 24.772 0.354499C24.1176 0.355768 23.4753 0.527775 22.9098 0.853087C22.3446 1.1784 21.8764 1.64547 21.5528 2.20695C21.2293 2.76842 21.0617 3.40436 21.0673 4.05031V24.4301C21.0619 25.0759 21.2293 25.7116 21.5528 26.2728C21.8764 26.834 22.3444 27.3011 22.9096 27.6264C23.4747 27.9516 24.117 28.1236 24.7711 28.1252C25.4253 28.1265 26.0682 27.9572 26.6348 27.6344L44.3408 17.4446C44.9047 17.116 45.3721 16.6479 45.6968 16.0866C46.0217 15.5252 46.1925 14.89 46.1925 14.2435C46.1927 13.5971 46.0221 12.9618 45.6976 12.4003C45.3731 11.8388 44.9058 11.3706 44.3419 11.0418Z" fill="url(#paint0_linear_331_492)"/>
<path fill-rule="evenodd" clip-rule="evenodd" d="M44.3419 11.0418L26.6361 0.845865C26.0695 0.522746 25.4263 0.353232 24.772 0.354499C24.1176 0.355768 23.4753 0.527775 22.9098 0.853087C22.3446 1.1784 21.8764 1.64547 21.5528 2.20695C21.2293 2.76842 21.0617 3.40436 21.0673 4.05031V24.4301C21.0619 25.0759 21.2293 25.7116 21.5528 26.2728C21.8764 26.834 22.3444 27.3011 22.9096 27.6264C23.4747 27.9516 24.117 28.1236 24.7711 28.1252C25.4253 28.1265 26.0682 27.9572 26.6348 27.6344L44.3408 17.4446C44.9047 17.116 45.3721 16.6479 45.6968 16.0866C46.0217 15.5252 46.1925 14.89 46.1925 14.2435C46.1927 13.5971 46.0221 12.9618 45.6976 12.4003C45.3731 11.8388 44.9058 11.3706 44.3419 11.0418Z" fill="#63E5FF"/>
</g>
</g>
<defs>
<linearGradient id="paint0_linear_331_492" x1="39.0067" y1="938.64" x2="23.4724" y2="940.142" gradientUnits="userSpaceOnUse">
<stop stop-color="#63E5FF"/>
<stop offset="1" stop-color="#29B7FF"/>
</linearGradient>
<clipPath id="clip0_331_492">
<rect width="300.444" height="52" fill="white" transform="translate(0 0.00195312)"/>
</clipPath>
</defs>
</svg>
