<svg width="33" height="31" viewBox="0 0 33 31" fill="none" xmlns="http://www.w3.org/2000/svg">
<path d="M0.292969 30.6055L6.89047 12.164L18.7362 24.0097L0.292969 30.6055ZM3.17347 27.725L15.511 23.35L7.54847 15.3875L3.17347 27.725ZM17.478 17.5015L16.3807 16.4042L28.7742 4.009L32.4195 7.65425L31.3905 8.7515L28.8092 6.17025L17.478 17.5015ZM11.689 11.7125L10.5917 10.6152L13.936 7.271L10.5725 3.90575L11.6697 2.80675L16.1322 7.26925L11.689 11.7125ZM14.5835 14.607L13.4862 13.5097L21.3175 5.6785L16.9862 1.34725L18.0835 0.25L23.512 5.6785L14.5835 14.607ZM20.3707 20.396L19.2735 19.2987L24.1297 14.4425L28.986 19.2987L27.8887 20.396L24.1297 16.637L20.3707 20.396Z" fill="#FFDE5A"/>
</svg>
