<svg width="25" height="25" viewBox="0 0 25 25" fill="none" xmlns="http://www.w3.org/2000/svg">
<path d="M11.8747 18.9177L19.5789 11.2135C18.2829 10.6721 17.1057 9.88145 16.1143 8.88645C15.1188 7.89483 14.3278 6.71734 13.7862 5.42083L6.08203 13.125C5.48099 13.726 5.17994 14.0271 4.92161 14.3583C4.61681 14.7494 4.35522 15.1724 4.1414 15.6198C3.96119 15.999 3.82682 16.4031 3.55807 17.2094L2.13932 21.4625C2.07402 21.6572 2.06433 21.8663 2.11134 22.0663C2.15835 22.2662 2.2602 22.4491 2.40543 22.5943C2.55067 22.7395 2.73353 22.8414 2.93347 22.8884C3.13341 22.9354 3.3425 22.9257 3.53724 22.8604L7.79036 21.4417C8.59765 21.1729 9.00078 21.0385 9.37994 20.8583C9.82925 20.6444 10.2497 20.3844 10.6414 20.0781C10.9727 19.8198 11.2737 19.5187 11.8747 18.9177ZM21.7164 9.07604C22.4846 8.30788 22.9161 7.26603 22.9161 6.17968C22.9161 5.09334 22.4846 4.05149 21.7164 3.28333C20.9482 2.51517 19.9064 2.08362 18.82 2.08362C17.7337 2.08362 16.6919 2.51517 15.9237 3.28333L14.9997 4.20729L15.0393 4.32291C15.4945 5.62581 16.2396 6.80832 17.2185 7.78124C18.2205 8.78939 19.4444 9.54921 20.7924 9.99999L21.7164 9.07604Z" fill="#E59E2C"/>
</svg>
