<svg width="269" height="55" viewBox="0 0 269 55" fill="none" xmlns="http://www.w3.org/2000/svg">
<g clip-path="url(#clip0_155_133)">
<path d="M137.993 17.1914H75.6425C72.114 17.1914 68.7298 18.5874 66.2332 21.0727C63.7365 23.5581 62.3315 26.9296 62.3267 30.4468C62.3246 33.1962 63.184 35.8776 64.7847 38.1166C66.0012 41.7757 61.7617 44.6563 61.7617 44.6563C65.303 44.4375 67.3651 43.1281 68.5707 41.6824C70.6854 43.0047 73.1318 43.7048 75.6281 43.7021H137.993C141.521 43.6973 144.903 42.2968 147.397 39.8081C149.89 37.3194 151.29 33.946 151.29 30.4288C151.281 26.9178 149.876 23.5537 147.384 21.0727C144.892 18.5917 141.515 17.1961 137.993 17.1914ZM88.9618 33.0225C87.9853 33.9098 86.4366 34.3522 84.3157 34.3498H79.4968V37.6645H74.7464V23.742H83.8442C86.1571 23.742 87.8366 24.176 88.8826 25.0442C89.9287 25.9123 90.4481 27.2384 90.4409 29.0226C90.4289 30.8067 89.9359 32.14 88.9618 33.0225ZM97.088 37.6645H92.8126V27.0567H97.088V37.6645ZM94.9503 26.0486C93.3524 26.0486 92.5535 25.3694 92.5535 24.011C92.5535 23.2684 92.7442 22.7482 93.1329 22.4505C93.6735 22.1073 94.3113 21.9487 94.9503 21.9985C95.8068 21.9985 96.4222 22.1492 96.8037 22.4505C97.1852 22.7518 97.3723 23.2684 97.3723 24.011C97.3723 25.3694 96.565 26.0486 94.9503 26.0486ZM108.986 37.4134C108.986 37.4134 107.809 37.887 105.077 37.887C103.763 37.887 102.829 37.6107 102.278 37.0583C101.72 36.5058 101.446 35.6915 101.446 34.6189V30.3571H99.4956V27.0423H100.759C100.983 27.0587 101.207 27.0048 101.399 26.8881C101.565 26.745 101.675 26.548 101.709 26.332C101.817 25.9231 101.975 25.0549 102.184 23.7276H105.747V27.0423H108.964V30.3571H105.747V33.6252C105.721 33.7636 105.73 33.9063 105.773 34.0404C105.817 34.1744 105.893 34.2956 105.995 34.3929C106.263 34.5501 106.574 34.6203 106.884 34.5938C107.591 34.5621 108.295 34.4758 108.989 34.3355L108.986 37.4134ZM123.835 31.071C123.115 30.808 122.381 30.5864 121.636 30.4073C120.626 30.1955 119.594 30.1004 118.562 30.1239C116.849 30.1239 115.994 30.8031 115.996 32.1615V32.5382C115.973 32.8247 116.016 33.1127 116.123 33.3797C116.23 33.6467 116.397 33.8854 116.612 34.0772C117.026 34.4108 117.673 34.5758 118.562 34.5758C119.554 34.5811 120.544 34.4862 121.517 34.2924C122.307 34.1368 123.082 33.9148 123.835 33.6288V36.7067C122.786 37.4959 121.029 37.8905 118.562 37.8905H118.228C115.963 37.8905 114.312 37.4051 113.276 36.4341C112.239 35.4631 111.721 34.1645 111.721 32.5382V32.1615C111.692 31.4414 111.819 30.7235 112.091 30.0559C112.364 29.3883 112.776 28.7865 113.301 28.2907C114.352 27.3054 115.994 26.8115 118.228 26.8092H118.562C119.709 26.7769 120.856 26.8976 121.97 27.1679C122.637 27.3251 123.268 27.6023 123.835 27.9858V31.071ZM139.486 37.6538H135.211V31.688C135.254 31.2536 135.124 30.8197 134.851 30.479C134.526 30.2113 134.108 30.0824 133.688 30.1203H133.354C132.483 30.1203 131.867 30.2961 131.5 30.6405C131.133 30.9849 130.957 31.5588 130.957 32.3445V37.6502H126.671V22.637H130.946V27.6594C131.752 27.0902 132.876 26.8056 134.318 26.8056H134.649C137.864 26.8056 139.472 28.4318 139.472 31.6844L139.486 37.6538Z" fill="#17173B"/>
<path d="M83.847 27.5309H80.2121C80.0151 27.5116 79.8184 27.571 79.6651 27.6959C79.5401 27.8489 79.4806 28.0448 79.4995 28.2412V29.8519C79.4806 30.0483 79.5401 30.2443 79.6651 30.3972C79.8191 30.5208 80.0152 30.58 80.2121 30.5622H83.847C84.5667 30.5622 85.067 30.4439 85.3225 30.2035C85.4629 30.0421 85.5688 29.8539 85.6338 29.6504C85.6987 29.4469 85.7214 29.2322 85.7004 29.0197C85.723 28.8103 85.701 28.5986 85.6359 28.3983C85.5708 28.198 85.464 28.0137 85.3225 27.8574C85.0634 27.6421 84.5667 27.5309 83.847 27.5309Z" fill="#17173B"/>
<path d="M175.476 37.655V30.2686C175.48 30.2004 175.459 30.133 175.418 30.0785C175.399 30.0556 175.376 30.0372 175.349 30.0248C175.322 30.0123 175.293 30.0062 175.263 30.0067C175.152 30.0067 175.058 30.0928 174.979 30.2686L172.507 37.655H168.188L165.528 30.2686C165.464 30.1108 165.37 30.0318 165.244 30.0318C165.118 30.0318 165.079 30.1108 165.079 30.2686V37.655H160.328V23.7324H166.788L170.088 32.256C170.101 32.3165 170.133 32.3709 170.181 32.4101C170.229 32.4493 170.289 32.4709 170.351 32.4713C170.461 32.4713 170.54 32.3995 170.588 32.256L173.867 23.7324H180.219V37.655H175.476Z" fill="#17173B"/>
<path d="M183.484 36.4062C182.444 35.434 181.926 34.139 181.926 32.5103V32.1336C181.898 31.4136 182.025 30.6959 182.297 30.0285C182.569 29.3611 182.981 28.7592 183.505 28.2628C184.561 27.2775 186.205 26.7836 188.436 26.7812H188.785C191.002 26.7812 192.633 27.2751 193.679 28.2628C194.2 28.761 194.609 29.3636 194.879 30.0308C195.149 30.6981 195.273 31.4148 195.245 32.1336V32.5103C195.245 34.139 194.727 35.434 193.69 36.4062C192.654 37.3783 191.02 37.8626 188.785 37.8626H188.425C186.165 37.8626 184.518 37.3772 183.484 36.4062ZM190.372 34.0277C190.573 33.8314 190.728 33.5941 190.828 33.3322C190.928 33.0703 190.97 32.7899 190.951 32.5103V32.1336C190.966 31.8569 190.92 31.5804 190.818 31.3228C190.716 31.0653 190.558 30.8328 190.358 30.6413C189.918 30.2623 189.348 30.067 188.767 30.096H188.425C187.837 30.0696 187.26 30.2642 186.809 30.6413C186.601 30.8287 186.438 31.0598 186.331 31.3179C186.224 31.5761 186.176 31.8547 186.19 32.1336V32.5103C186.168 32.7944 186.212 33.0797 186.317 33.3445C186.422 33.6093 186.587 33.8467 186.798 34.0385C187.261 34.3984 187.839 34.5793 188.425 34.5479H188.785C189.36 34.5772 189.926 34.3918 190.372 34.0277Z" fill="#17173B"/>
<path d="M209.754 31.6637V37.6295H205.478V31.6637C205.521 31.2293 205.392 30.7954 205.119 30.4547C204.793 30.1864 204.374 30.0575 203.953 30.096H203.621C202.751 30.096 202.132 30.2718 201.768 30.6162C201.405 30.9605 201.221 31.5345 201.221 32.3237V37.6259H196.949V27.018H201.225V27.635C202.034 27.0647 203.157 26.7812 204.6 26.7812H204.931C208.146 26.7836 209.754 28.4111 209.754 31.6637Z" fill="#17173B"/>
<path d="M222.122 31.6601C222.863 31.7722 223.554 32.102 224.105 32.6071C224.514 33.0689 224.727 33.6708 224.699 34.286C224.721 34.9411 224.561 35.5894 224.235 36.1586C223.925 36.6633 223.304 37.0734 222.371 37.3891C221.437 37.7048 220.097 37.8626 218.351 37.8626H217.851C216.49 37.8626 215.202 37.8052 213.993 37.6976C213.205 37.6521 212.422 37.5405 211.653 37.364V34.0744C212.54 34.2274 213.436 34.3256 214.334 34.3685C215.857 34.4869 217.019 34.5479 217.829 34.5479H218.351C219.598 34.5479 220.223 34.3195 220.226 33.8627C220.226 33.4514 219.592 33.2457 218.326 33.2457H216.886C214.935 33.2457 213.538 33.0173 212.693 32.5605C211.844 32.1013 211.423 31.3265 211.423 30.2395C211.408 29.7073 211.545 29.1818 211.818 28.7244C212.092 28.2671 212.49 27.8967 212.967 27.6566C213.996 27.0754 215.619 26.7836 217.836 26.7812H218.351C219.492 26.7812 220.604 26.8386 221.687 26.9463C222.77 27.0539 223.537 27.1615 223.979 27.2548V30.5695C223.471 30.4906 222.591 30.3925 221.341 30.2753C220.091 30.1582 219.095 30.0984 218.351 30.096H217.811C217.249 30.0738 216.686 30.1171 216.134 30.2251C215.828 30.3148 215.673 30.4583 215.673 30.6664C215.673 30.8744 215.821 31.0753 216.123 31.1865C216.674 31.3258 217.243 31.3815 217.811 31.3516H218.351C219.615 31.3246 220.879 31.428 222.122 31.6601Z" fill="#17173B"/>
<path d="M229.177 37.0631C228.623 36.5106 228.345 35.6975 228.345 34.6237V30.3619H226.398V27.0472H227.633C227.857 27.0635 228.081 27.0096 228.273 26.8929C228.44 26.7508 228.55 26.5533 228.583 26.3369C228.693 25.9279 228.852 25.0597 229.058 23.7324H232.621V27.0472H236.918V30.3619H232.614V33.63C232.588 33.7684 232.598 33.911 232.641 34.0449C232.684 34.1788 232.76 34.3 232.862 34.3977C233.131 34.5562 233.443 34.6276 233.754 34.6022C234.408 34.6043 235.062 34.5719 235.712 34.5053C236.123 34.4712 236.531 34.4161 236.936 34.3403V37.1815C236.335 37.3795 235.718 37.5295 235.093 37.6299C234.064 37.8154 233.019 37.9031 231.973 37.8918C230.656 37.8918 229.724 37.6156 229.177 37.0631Z" fill="#17173B"/>
<path d="M242.901 33.2094C242.947 33.4521 243.056 33.6787 243.216 33.8672C243.376 34.0557 243.582 34.1999 243.815 34.2856C244.498 34.5197 245.22 34.6244 245.942 34.5942C247.472 34.5994 248.998 34.4407 250.494 34.1206V37.1986C249.893 37.4031 248.868 37.9161 245.942 37.9161H245.607C243.153 37.9161 241.376 37.4378 240.277 36.4811C239.178 35.5245 238.628 34.2175 238.625 32.5601V32.1834C238.616 31.2319 238.885 30.2982 239.399 29.4965C239.948 28.6508 240.725 27.9768 241.641 27.5522C242.734 27.0489 243.929 26.8034 245.132 26.8347H245.467C247.717 26.8347 249.316 27.368 250.264 28.4346C251.216 29.488 251.731 30.8628 251.703 32.2803V33.2274L242.901 33.2094ZM244.301 29.8839C244.011 30.0139 243.752 30.2034 243.541 30.44C243.4 30.588 243.316 30.7812 243.304 30.9853C243.298 31.0303 243.302 31.0762 243.317 31.1192C243.332 31.1623 243.356 31.2013 243.389 31.2333C243.421 31.2653 243.461 31.2893 243.504 31.3036C243.547 31.3178 243.593 31.3218 243.638 31.3153H246.557C246.939 31.3153 247.129 31.1957 247.129 30.9566C247.118 30.7863 247.071 30.6204 246.991 30.4695C246.911 30.3187 246.8 30.1864 246.665 30.0812C246.328 29.787 245.889 29.634 245.441 29.6543C245.055 29.6478 244.671 29.7262 244.319 29.8839H244.301Z" fill="#17173B"/>
<path d="M257.692 27.0395V27.9866C258.105 27.5912 258.595 27.2847 259.132 27.0862C259.674 26.9027 260.24 26.7999 260.812 26.7812C261.655 26.814 262.473 27.0757 263.177 27.5382V30.8278C262.723 30.3435 261.511 29.9453 260.812 29.9453C259.067 29.9453 258.606 30.5121 258.243 30.8744C257.879 31.2368 257.696 31.8538 257.696 32.7219V37.6474H253.402V27.0395H257.692Z" fill="#17173B"/>
<path d="M47.3881 39.467C47.376 39.4597 47.3627 39.4549 47.3488 39.4529C47.3348 39.4509 47.3206 39.4517 47.307 39.4553C47.2934 39.4588 47.2807 39.4651 47.2696 39.4737C47.2585 39.4824 47.2492 39.4931 47.2424 39.5054C47.149 39.6643 47.0693 39.8286 46.9676 39.9793C46.8659 40.1299 46.7615 40.2806 46.6461 40.4258L46.2971 40.8504L45.9233 41.2531C45.4174 41.7776 44.8656 42.2561 44.2745 42.683C43.6983 43.1157 43.0881 43.5014 42.4497 43.8363C42.1337 44.0006 41.8094 44.1485 41.4906 44.2992C41.1581 44.4197 40.8366 44.5731 40.5013 44.6608C39.4795 44.9697 38.3844 44.938 37.3822 44.5704C35.7554 43.976 33.5514 42.998 32.6885 41.9598C32.2268 41.412 32.0372 40.6422 31.8366 39.8341C31.6112 38.9329 31.3584 37.9166 30.6604 37.0729C30.2436 36.5466 29.7215 36.1126 29.1273 35.7985C28.533 35.4844 27.8796 35.2971 27.2088 35.2485C26.7013 35.2237 26.1943 35.3058 25.7208 35.4894C25.2473 35.673 24.818 35.954 24.4607 36.3141C23.8891 36.8992 23.456 37.6043 23.1931 38.3778C22.9301 39.1514 22.844 39.9737 22.941 40.7846C23.0497 41.8258 23.3849 42.8309 23.9231 43.7297C24.4613 44.6286 25.1896 45.3997 26.0573 45.9894C28.2558 47.4768 30.872 47.9069 33.1749 47.9069C37.2229 47.9069 39.9325 46.8769 41.0977 46.2633L42.1694 45.7154C42.5074 45.5018 42.8455 45.2909 43.1697 45.0635C43.805 44.5943 44.4006 44.0739 44.9505 43.5075C45.4901 42.9432 45.9801 42.3337 46.4152 41.6859C46.8665 41.0504 47.2074 40.3439 47.4238 39.5958C47.4329 39.5734 47.4343 39.5486 47.4279 39.5253C47.4214 39.5021 47.4074 39.4816 47.3881 39.467ZM27.2775 44.2198C26.6678 43.8098 26.1551 43.2721 25.7754 42.6443C25.3957 42.0164 25.158 41.3135 25.079 40.5847C25.0139 40.0874 25.061 39.5819 25.2169 39.1051C25.3729 38.6284 25.6337 38.1923 25.9804 37.8289C26.1157 37.6883 26.2783 37.5767 26.4583 37.5008C26.6383 37.425 26.832 37.3866 27.0274 37.3879H27.1044C27.4718 37.431 27.8266 37.5476 28.1477 37.7307C28.4689 37.9138 28.7496 38.1596 28.9731 38.4535C29.355 38.9137 29.5227 39.5848 29.715 40.371C29.9569 41.3133 30.2317 42.4091 31.0067 43.3377C31.7816 44.2663 33.0073 45.006 34.2714 45.6168C34.284 45.6209 34.2947 45.6294 34.3015 45.6408C34.3083 45.6521 34.3108 45.6656 34.3085 45.6786C34.3061 45.6916 34.2991 45.7034 34.2888 45.7116C34.2784 45.7199 34.2654 45.7242 34.2522 45.7237C32.0592 45.8606 29.3605 45.6387 27.2775 44.2198Z" fill="#17173B"/>
<path d="M15.86 34.7889C16.0139 32.8714 16.5717 27.7927 18.303 23.1522C20.7021 16.7203 24.5934 10.6143 25.9977 10.3623C26.987 10.1842 21.1418 21.7278 22.9473 22.6208C24.3543 23.3166 26.1901 17.1887 30.8316 10.7568C35.0169 4.95485 42.3736 -0.649825 42.6676 -0.474508C42.9617 -0.29919 37.2594 6.31904 34.3437 11.9292C32.4557 15.5561 32.5382 17.6818 33.4863 18.4707C34.4343 19.2597 37.5479 15.9204 40.8154 13.403C44.3275 10.6938 48.0072 9.88565 48.2353 10.1158C48.3974 10.2938 45.0475 11.6991 41.9779 14.8274C41.0463 15.778 38.0426 18.4735 38.8148 19.3364C39.7244 20.3499 45.2948 21.3525 43.6515 21.6977C43.286 21.7771 39.3727 21.536 38.9962 21.5196C35.8111 21.3826 29.191 22.9331 24.5412 26.1491C19.8914 29.365 15.5055 39.1527 15.86 34.7889Z" fill="#17173B"/>
<path d="M33.4911 53.5212C27.2144 53.5212 21.1246 50.3217 17.9149 45.4402C17.3742 45.641 16.8017 45.7431 16.2248 45.7415C14.7216 45.7415 13.2898 44.9197 12.1961 43.4268C11.277 42.1881 10.7602 40.6989 10.7148 39.1589C10.7148 36.1922 12.5231 34.502 15.6614 34.502C15.8007 34.502 15.9408 34.5075 16.0819 34.5185C17.0547 30.9875 20.6355 22.8763 33.2053 20.3534C37.9705 19.3974 42.7851 20.3096 46.4209 22.8544C50.0566 25.3992 52.3842 29.4425 53.14 34.5349C53.739 38.57 52.4117 42.7091 49.3998 46.188C45.4948 50.7079 39.394 53.5212 33.4911 53.5212ZM18.4095 42.2626C18.5103 42.2627 18.6107 42.2737 18.7091 42.2955C18.9109 42.3384 19.101 42.4246 19.2662 42.548C19.4313 42.6715 19.5675 42.8293 19.6654 43.0104C22.1387 47.5878 27.8217 50.7819 33.4993 50.7819C38.5476 50.7819 43.9806 48.2727 47.3415 44.391C49.0975 42.3612 51.0597 39.074 50.4441 34.9294C49.801 30.5985 47.8691 27.1935 44.8627 25.087C41.8563 22.9804 37.8001 22.2216 33.7714 23.0325C22.5399 25.2842 19.506 32.3982 18.7228 35.3595C18.6431 35.658 18.5744 35.9731 18.5194 36.2963C18.4849 36.4996 18.4063 36.6929 18.2891 36.8628C18.1718 37.0327 18.0188 37.1749 17.8407 37.2797C17.6634 37.3856 17.465 37.4516 17.2594 37.4729C17.0538 37.4942 16.8461 37.4703 16.6507 37.403C16.3394 37.2961 16.0127 37.2405 15.6834 37.2386C13.8394 37.2386 13.4849 37.9454 13.4849 39.1562C13.4849 40.7998 14.859 42.9912 16.233 42.9912C16.7069 42.9924 17.1674 42.8352 17.5411 42.5447C17.7915 42.358 18.0968 42.2588 18.4095 42.2626Z" fill="#17173B"/>
<path d="M27.2969 25.9336C28.7937 26.6188 30.3397 27.192 31.9219 27.6484C33.4457 28.0806 35.0122 28.3461 36.5937 28.4401L37.1818 28.473C37.3796 28.4867 37.5748 28.473 37.7726 28.473C38.1656 28.4921 38.5586 28.4593 38.9543 28.4538C39.743 28.4127 40.5317 28.3387 41.3259 28.2264C42.9547 27.97 44.5642 27.6039 46.1433 27.1307C44.8574 28.2947 43.3339 29.1675 41.6777 29.6892C40.842 29.957 39.9839 30.1495 39.1137 30.2645C38.2376 30.3704 37.3537 30.397 36.4728 30.3439C34.7112 30.2379 32.9863 29.7962 31.3915 29.0427C29.814 28.3189 28.416 27.2573 27.2969 25.9336Z" fill="#17173B"/>
<path d="M28.0566 29.7563C28.0478 29.7518 28.0379 29.7498 28.0279 29.7504C28.018 29.7511 28.0085 29.7544 28.0003 29.76C27.9921 29.7656 27.9857 29.7733 27.9815 29.7823C27.9774 29.7913 27.9758 29.8013 27.9769 29.8111C28.1225 31.9752 31.2746 36.0842 35.9464 36.5718C41.7888 37.1827 45.9632 32.4628 46.3644 29.6358C46.3665 29.6254 46.3655 29.6146 46.3615 29.6047C46.3575 29.5948 46.3508 29.5863 46.342 29.5802C46.3333 29.5741 46.323 29.5707 46.3123 29.5703C46.3016 29.57 46.2911 29.5728 46.282 29.5783C45.6252 29.9289 41.7531 31.8875 37.2792 31.7232C32.1513 31.5342 28.6392 30.0221 28.0566 29.7563Z" fill="#17173B"/>
</g>
<defs>
<clipPath id="clip0_155_133">
<rect width="269" height="55" fill="white"/>
</clipPath>
</defs>
</svg>
