<svg width="140" height="34" viewBox="0 0 140 34" fill="none" xmlns="http://www.w3.org/2000/svg">
<g clip-path="url(#clip0_290_2509)">
<path fill-rule="evenodd" clip-rule="evenodd" d="M57.3955 28.8066L51.1586 29.0668H51.1574V9.61205C51.1574 6.64267 51.4177 5.41706 52.68 3.18943V3.1149H45.7001V3.18943C46.9257 5.41706 47.2227 6.64149 47.2227 9.61205V23.5717C47.2227 26.6168 46.9257 27.9158 45.6635 30.2179V30.2925H63.4466L65.1549 22.7554L64.5232 22.4952C62.5558 25.6503 60.2915 28.6954 57.3955 28.8066ZM67.0478 15.5899V24.3513V24.3525C67.0478 28.3251 68.7927 30.8497 72.1714 30.8497C75.3644 30.8497 77.1839 28.6966 78.594 26.4689V30.7385L83.8656 29.4762V29.4016C82.6033 28.5475 82.0461 27.8424 82.0461 23.9444V11.4694H76.5888V11.6173C77.7399 12.3969 78.4083 13.7337 78.4083 15.5899V25.0576C77.592 26.6902 76.2552 27.9158 74.2133 27.9158C71.949 27.9158 70.6867 26.5056 70.6867 23.7208V11.4694H65.3028V11.6173C66.3048 12.3969 67.0478 13.697 67.0478 15.5899ZM97.6028 16.2949L97.009 16.444C95.3007 13.2877 93.1854 12.3969 91.2914 12.3969C89.2495 12.3969 88.1351 13.3622 88.1351 14.8469C88.1351 16.852 90.1507 17.6542 92.4754 18.5795C92.7335 18.6822 92.9954 18.7865 93.2588 18.894C95.9691 20.0084 98.7161 21.3819 98.7161 25.0943C98.7161 29.0302 95.5231 30.8485 91.3281 30.8485C89.175 30.8485 87.1698 30.3658 85.536 29.8086L85.1279 24.4992L85.7217 24.3501C87.4667 27.8767 89.3974 29.3993 91.922 29.3993C94.4465 29.3993 95.4864 27.9879 95.4864 26.392C95.4864 24.2756 93.6669 23.3848 91.5505 22.494C91.3561 22.4099 91.1586 22.3262 90.9596 22.2418C88.3472 21.1341 85.4615 19.9106 85.4615 16.2192C85.4615 12.2466 88.9147 10.9098 92.3668 10.9098C94.2229 10.9098 96.117 11.2813 97.1557 11.6894L97.6017 16.2926L97.6028 16.2949ZM101.463 26.1708C101.463 29.8083 103.542 30.8483 105.881 30.8485C108.035 30.8483 109.742 29.8451 110.782 28.3606L110.374 27.8412C110.039 28.1382 109.186 28.5842 107.774 28.5842C106.067 28.5842 105.213 27.73 105.213 26.0963V12.9908H110.411V11.5061H105.213V7.34775H104.805L99.31 12.3224V12.9908H101.463V26.1708ZM126.71 25.5024L127.304 25.9851C126.042 28.6587 123.48 30.8485 119.619 30.8485C114.459 30.8485 110.931 27.0616 110.931 21.2695C110.931 14.8836 115.237 10.911 119.916 10.911C124.595 10.911 127.675 14.9948 127.193 19.301H114.681V19.8582C114.681 24.9073 117.391 27.7288 121.475 27.7288C123.442 27.7288 125.336 27.0983 126.71 25.5012V25.5024ZM114.829 17.9287L123.368 17.743V17.3348C123.368 13.9561 122.18 12.3969 119.841 12.3969C117.242 12.3969 115.349 14.5878 114.829 17.9287ZM130.014 22.9778C130.014 26.282 129.828 28.1394 129.085 30.2179V30.2925H134.581V30.2179C133.764 28.1394 133.69 26.2453 133.69 22.9412V16.9634C134.617 15.6644 135.806 14.9215 136.437 14.9215C137.291 14.9215 138.701 15.2563 139.444 15.5899L139.927 15.5153L140.001 10.9122C137.687 10.9122 135.83 13.0017 134.306 14.7175C134.094 14.9558 133.889 15.1869 133.69 15.4041H133.504V10.7265L128.195 12.805V12.8796C129.16 13.8816 130.014 15.2551 130.014 17.6684V22.9778Z" fill="#33043C"/>
<path d="M7.24246 16.709L16.709 7.24246L26.1755 16.709L16.709 26.1755L7.24246 16.709ZM21.0779 0L16.7102 7.24246L27.3633 3.11963C25.5308 1.68107 23.4002 0.605707 21.0791 0.00118302L21.0779 0ZM16.709 26.1767L21.0767 33.4192C23.3978 32.8147 25.5284 31.7393 27.3609 30.3007L16.7078 26.1779L16.709 26.1767ZM16.709 7.24246L12.3413 0C10.0202 0.604524 7.88957 1.67989 6.05707 3.11845L16.7102 7.24128L16.709 7.24246ZM12.3413 33.4192L16.709 26.1767L6.05589 30.2996C7.88839 31.7381 10.019 32.8135 12.3401 33.418L12.3413 33.4192ZM26.1767 16.709L30.2996 27.3621C31.7381 25.5296 32.8135 23.399 33.418 21.0779L26.1755 16.7102L26.1767 16.709ZM30.2996 6.05707L26.1767 16.7102L33.4192 12.3425C32.8147 10.0214 31.7393 7.89076 30.3007 6.05826L30.2996 6.05707ZM3.11845 27.3621L7.24128 16.709L0 21.0779C0.604524 23.399 1.67989 25.5296 3.11845 27.3621ZM7.24246 16.709L3.11845 6.05707C1.67989 7.88957 0.604524 10.0202 0 12.3413L7.24246 16.709Z" fill="#33043C"/>
</g>
<defs>
<clipPath id="clip0_290_2509">
<rect width="140" height="33.4192" fill="white"/>
</clipPath>
</defs>
</svg>
