<?xml version="1.0" encoding="UTF-8"?>
<svg xmlns="http://www.w3.org/2000/svg" width="156" height="27" viewBox="0 0 156 27" fill="none">
  <g id="logo_SecondNature.svg" clip-path="url(#clip0_396_7006)">
    <g id="Group 589">
      <g id="Group 558">
        <path id="Path 2" d="M32.6818 10.9422C32.2224 10.9227 31.7706 11.0627 31.4049 11.338C31.2414 11.4699 31.1115 11.6378 31.0256 11.8283C30.9396 12.0187 30.9001 12.2264 30.9102 12.4346C30.8862 12.8325 31.0162 13.2245 31.2741 13.5313C31.5385 13.8096 31.8689 14.0186 32.2356 14.1394C32.6637 14.2896 33.1 14.4158 33.5424 14.5176C34.0153 14.6281 34.4882 14.7632 34.961 14.9228C35.4158 15.0747 35.8535 15.2723 36.2673 15.5127C36.6777 15.759 37.0106 16.1132 37.2288 16.5356C37.4846 17.0413 37.6097 17.6017 37.5927 18.1667C37.5943 18.6857 37.4808 19.1987 37.2602 19.6698C37.0397 20.1409 36.7173 20.5587 36.3158 20.8937C35.3721 21.6876 34.1571 22.096 32.9187 22.0357C31.6976 22.0927 30.4922 21.7458 29.4935 21.05C29.0645 20.7268 28.7215 20.3056 28.494 19.8225C28.2664 19.3395 28.1612 18.8091 28.1872 18.277H30.9874C31.0866 19.4072 31.7399 19.9723 32.9474 19.9723C33.4621 20.0003 33.9686 19.8358 34.366 19.5116C34.5391 19.358 34.6757 19.1685 34.7661 18.9567C34.8565 18.7449 34.8984 18.516 34.8889 18.2864C34.8927 18.0428 34.8308 17.8026 34.7093 17.5905C34.5879 17.3783 34.4115 17.202 34.1981 17.0795C33.6849 16.7635 33.1193 16.5391 32.5273 16.4165C31.874 16.269 31.2177 16.0909 30.5584 15.882C29.906 15.678 29.3243 15.2982 28.8787 14.7854C28.3968 14.2025 28.1507 13.4641 28.1879 12.7126C28.1683 12.1792 28.2745 11.6486 28.4979 11.1626C28.7214 10.6766 29.0561 10.2484 29.4756 9.91178C30.4181 9.18364 31.5927 8.81112 32.7884 8.86116C33.9456 8.80561 35.0893 9.12596 36.0445 9.77313C36.4662 10.1051 36.8061 10.5271 37.0389 11.0074C37.2717 11.4877 37.3911 12.0138 37.3884 12.5462H34.5154C34.4872 12.0999 34.2868 11.6813 33.9555 11.3765C33.6028 11.0763 33.147 10.9209 32.6818 10.9422Z" fill="#171650"></path>
        <path id="Path 3" d="M44.0127 22.0537C43.3315 22.079 42.6526 21.9634 42.0194 21.7143C41.3862 21.4652 40.8128 21.0882 40.3359 20.6073C39.8541 20.095 39.4805 19.4931 39.237 18.8367C38.9934 18.1803 38.8847 17.4826 38.9173 16.7843C38.8837 16.0879 38.9929 15.3919 39.2383 14.7381C39.4837 14.0843 39.8603 13.4862 40.3455 12.9795C40.829 12.5034 41.4067 12.1309 42.0427 11.8852C42.6786 11.6394 43.359 11.5258 44.0414 11.5514C44.7247 11.5268 45.4061 11.6372 46.0455 11.876C46.685 12.1149 47.2698 12.4774 47.7654 12.9423C48.2563 13.4272 48.6394 14.0078 48.8901 14.6471C49.1408 15.2864 49.2538 15.9703 49.2217 16.6551C49.2233 16.9882 49.1983 17.321 49.147 17.6502H41.6032C41.6394 18.2581 41.9061 18.8304 42.3502 19.253C42.8005 19.664 43.3972 19.8826 44.0101 19.8611C44.4174 19.8821 44.8224 19.7896 45.179 19.5941C45.5355 19.3986 45.8291 19.1081 46.0263 18.7557H48.8648C48.5723 19.7176 47.961 20.5546 47.1289 21.1323C46.2177 21.7627 45.1248 22.0858 44.0127 22.0537ZM45.7365 14.3522C45.2708 13.947 44.6677 13.7299 44.0472 13.744C43.4372 13.7255 42.8442 13.9439 42.3955 14.3522C41.9417 14.7807 41.6599 15.3565 41.6019 15.9738H46.4923C46.4867 15.6665 46.4166 15.3637 46.2865 15.0845C46.1564 14.8053 45.9691 14.5557 45.7365 14.3515V14.3522Z" fill="#171650"></path>
        <path id="Path 4" d="M51.5154 20.6162C50.6002 19.5511 50.0979 18.1998 50.0979 16.8032C50.0979 15.4066 50.6002 14.0553 51.5154 12.9903C51.9938 12.512 52.5678 12.1372 53.2009 11.8898C53.834 11.6424 54.5123 11.5278 55.1928 11.5533C56.315 11.5141 57.4205 11.8306 58.3473 12.4565C59.2079 13.0799 59.8111 13.9896 60.0455 15.0177H57.2083C57.0617 14.6159 56.7844 14.2733 56.4198 14.0433C56.0552 13.8134 55.6238 13.709 55.1928 13.7466C54.8508 13.7317 54.5103 13.7984 54.2 13.941C53.8897 14.0836 53.6188 14.298 53.4103 14.5659C52.9899 15.2384 52.7673 16.013 52.7673 16.8032C52.7673 17.5934 52.9899 18.3681 53.4103 19.0406C53.6188 19.3085 53.8897 19.5229 54.2 19.6655C54.5103 19.8082 54.8508 19.8748 55.1928 19.8599C55.6255 19.8929 56.0572 19.7845 56.4214 19.5515C56.7855 19.3185 57.0621 18.9738 57.2083 18.5704H60.0468C59.7837 19.5877 59.1753 20.4853 58.323 21.1134C57.4134 21.7579 56.3138 22.0883 55.1947 22.0531C54.5139 22.0789 53.8352 21.9645 53.2018 21.7171C52.5683 21.4697 51.994 21.0947 51.5154 20.6162Z" fill="#171650"></path>
        <path id="Path 5" d="M62.3589 20.5977C61.8529 20.1 61.4573 19.504 61.197 18.8474C60.9368 18.1908 60.8176 17.488 60.847 16.7835C60.817 16.0799 60.938 15.378 61.202 14.7238C61.4661 14.0696 61.8673 13.4779 62.3793 12.9875C63.4224 12.0619 64.7754 11.5498 66.178 11.5498C67.5806 11.5498 68.9336 12.0619 69.9766 12.9875C70.9613 14.0166 71.509 15.379 71.5073 16.7945C71.5055 18.2101 70.9543 19.5711 69.9671 20.5977C69.4602 21.0778 68.8617 21.4538 68.2064 21.7037C67.5512 21.9536 66.8521 22.0725 66.1499 22.0536C65.4514 22.0744 64.7557 21.9563 64.1044 21.7062C63.4531 21.4561 62.8595 21.0791 62.3589 20.5977ZM66.148 19.8604C66.5028 19.8638 66.8544 19.7943 67.1805 19.6562C67.5066 19.5182 67.8001 19.3147 68.0422 19.0587C68.5547 18.4137 68.8339 17.6181 68.8357 16.7984C68.8374 15.9787 68.5615 15.1819 68.0518 14.5348C67.8089 14.2802 67.515 14.0783 67.1887 13.9419C66.8625 13.8056 66.5111 13.7377 66.1569 13.7426C65.8053 13.7364 65.4564 13.8038 65.1331 13.9403C64.8098 14.0769 64.5194 14.2795 64.2812 14.5348C63.7846 15.1887 63.5162 15.9839 63.5162 16.8012C63.5162 17.6184 63.7846 18.4136 64.2812 19.0675C64.518 19.3223 64.8068 19.5246 65.1286 19.6613C65.4503 19.7979 65.7977 19.8658 66.148 19.8604Z" fill="#171650"></path>
        <path id="Path 6" d="M75.7601 11.6982V13.2271C76.0825 12.6791 76.5543 12.2313 77.1218 11.9348C77.6893 11.6384 78.3297 11.505 78.9701 11.5501C79.5073 11.5309 80.0425 11.6237 80.541 11.8222C81.0395 12.0207 81.4901 12.3205 81.8635 12.7021C82.6508 13.5793 83.0535 14.7289 82.9833 15.8987V21.9043H80.3702V16.2662C80.4163 15.599 80.195 14.9406 79.7541 14.4328C79.5347 14.2167 79.2719 14.0485 78.9826 13.939C78.6933 13.8294 78.3838 13.781 78.0744 13.7969C77.7635 13.7815 77.4529 13.8302 77.162 13.9396C76.8712 14.0491 76.6067 14.2171 76.3851 14.4328C76.164 14.6829 75.995 14.9735 75.8878 15.2881C75.7805 15.6027 75.7371 15.935 75.7601 16.2662V21.9043H73.1284V11.6944L75.7601 11.6982Z" fill="#171650"></path>
        <path id="Path 7" d="M85.8864 20.5702C84.9896 19.511 84.4974 18.1749 84.4956 16.7945C84.4939 15.4141 84.9827 14.0768 85.8768 13.0154C86.3215 12.537 86.8652 12.1585 87.4711 11.9058C88.0769 11.6531 88.7308 11.532 89.3882 11.5508C90.0371 11.5254 90.681 11.6729 91.2524 11.9776C91.8238 12.2823 92.3016 12.733 92.6359 13.2827V8.271H95.249V21.9057H92.6359V20.192C92.3136 20.7655 91.8395 21.2416 91.2641 21.5695C90.6887 21.8973 90.0339 22.0645 89.3697 22.0531C88.7151 22.0682 88.065 21.9435 87.4638 21.6876C86.8626 21.4316 86.3245 21.0505 85.8864 20.5702ZM91.813 19.004C92.343 18.3897 92.634 17.6092 92.634 16.8022C92.634 15.9953 92.343 15.2148 91.813 14.6005C91.5639 14.3476 91.2661 14.1464 90.9371 14.0087C90.6081 13.871 90.2545 13.7996 89.8971 13.7987C89.5398 13.7978 89.1859 13.8675 88.8562 14.0035C88.5265 14.1396 88.2276 14.3394 87.9772 14.5911C87.6976 14.8826 87.4814 15.2275 87.3418 15.6045C87.2021 15.9816 87.142 16.3829 87.1652 16.7837C87.1431 17.1879 87.2045 17.5923 87.3457 17.9724C87.4868 18.3524 87.7047 18.7002 87.9862 18.9946C88.2329 19.2501 88.5294 19.4536 88.8579 19.593C89.1864 19.7324 89.54 19.8047 89.8975 19.8056C90.2551 19.8065 90.6092 19.7359 90.9383 19.5982C91.2675 19.4604 91.565 19.2583 91.813 19.004Z" fill="#171650"></path>
        <path id="Path 8" d="M106.11 9.1377H107.809V21.907H106.11L99.2791 11.7727V21.907H97.5808V9.1377H99.2791L106.11 19.272V9.1377Z" fill="#171650"></path>
        <path id="Path 9" d="M110.87 20.5879C109.919 19.5519 109.416 18.1893 109.47 16.7919C109.44 16.1086 109.547 15.4262 109.786 14.7841C110.024 14.1421 110.39 13.5532 110.861 13.0514C111.31 12.5843 111.854 12.2158 112.457 11.9697C113.06 11.7237 113.708 11.6057 114.361 11.6233C115.166 11.6058 115.959 11.8168 116.647 12.2315C117.279 12.615 117.793 13.1632 118.13 13.8159V11.7897H119.848V21.9051H118.13V19.8416C117.796 20.5037 117.282 21.0616 116.647 21.4538C115.962 21.8743 115.167 22.089 114.361 22.0715C113.705 22.0856 113.054 21.9604 112.452 21.7044C111.85 21.4484 111.31 21.0677 110.87 20.5879ZM117.114 19.6022C117.771 18.8344 118.131 17.8618 118.131 16.8568C118.131 15.8518 117.771 14.8793 117.114 14.1115C116.802 13.7811 116.423 13.5186 116.002 13.341C115.581 13.1633 115.127 13.0744 114.669 13.0798C114.214 13.0731 113.763 13.1578 113.342 13.3289C112.922 13.5 112.541 13.7538 112.224 14.0749C111.876 14.4341 111.606 14.8598 111.431 15.3259C111.256 15.792 111.179 16.2886 111.206 16.785C111.162 17.8098 111.531 18.8102 112.233 19.5669C112.542 19.9006 112.917 20.1677 113.336 20.3517C113.754 20.5356 114.207 20.6323 114.665 20.6358C115.123 20.6393 115.577 20.5495 115.998 20.372C116.419 20.1944 116.799 19.933 117.113 19.604L117.114 19.6022Z" fill="#171650"></path>
        <path id="Path 10" d="M125.54 20.5422H126.94V21.9054H125.223C123.443 21.9054 122.554 21.0394 122.554 19.3075V13.1532H121.228V11.79H122.554V9.28418H124.27V11.79H126.921V13.1532H124.27V19.3075C124.235 19.6506 124.335 19.994 124.551 20.2655C124.832 20.4799 125.187 20.579 125.54 20.5422Z" fill="#171650"></path>
        <path id="Path 11" d="M135.565 11.7902H137.263V21.9056H135.565V20.284C135.237 20.8641 134.749 21.3401 134.157 21.6566C133.566 21.9731 132.895 22.117 132.224 22.0713C131.699 22.0854 131.177 21.9938 130.689 21.8021C130.201 21.6105 129.758 21.3227 129.387 20.9564C128.99 20.5334 128.684 20.0351 128.489 19.4919C128.293 18.9486 128.211 18.3718 128.248 17.7964V11.7896H129.928V17.5197C129.87 18.3577 130.141 19.1856 130.684 19.8321C131.244 20.3472 131.981 20.6336 132.747 20.6336C133.512 20.6336 134.249 20.3472 134.809 19.8321C135.353 19.1856 135.623 18.3577 135.565 17.5197L135.565 11.7902Z" fill="#171650"></path>
        <path id="Path 12" d="M141.294 11.7907V13.5043C141.557 12.9139 141.996 12.4172 142.554 12.0811C143.111 11.7451 143.759 11.5858 144.411 11.6249V13.3726H143.964C143.604 13.3475 143.243 13.3941 142.901 13.5096C142.56 13.6251 142.245 13.8072 141.976 14.0451C141.452 14.706 141.208 15.5419 141.295 16.377V21.9048H139.596V11.7907H141.294Z" fill="#171650"></path>
        <path id="Path 13" d="M150.291 22.0693C149.624 22.0936 148.96 21.978 148.343 21.7303C147.725 21.4826 147.167 21.1084 146.707 20.6324C145.756 19.597 145.259 18.2323 145.325 16.8364C145.292 16.1452 145.399 15.4543 145.64 14.8042C145.88 14.1541 146.249 13.5578 146.725 13.0499C147.699 12.1454 148.981 11.6355 150.318 11.6219C151.654 11.6082 152.948 12.0917 153.94 12.9762C154.39 13.432 154.742 13.9731 154.975 14.5669C155.207 15.1607 155.316 15.7949 155.293 16.4312C155.295 16.7643 155.27 17.0971 155.218 17.4263H147.062C147.062 18.3137 147.406 19.1673 148.023 19.8124C148.321 20.1033 148.675 20.331 149.065 20.4815C149.455 20.6321 149.872 20.7023 150.291 20.6878C150.912 20.7081 151.525 20.548 152.055 20.2271C152.521 19.9345 152.889 19.5109 153.11 19.0107H154.939C154.618 19.8909 154.036 20.6551 153.268 21.2034C152.398 21.8049 151.352 22.109 150.291 22.0693ZM152.589 13.8762C151.975 13.3166 151.17 13.0043 150.335 13.0008C149.499 12.9973 148.692 13.3028 148.072 13.8573C147.449 14.4862 147.095 15.3273 147.083 16.2068H153.522C153.535 15.7768 153.458 15.3488 153.297 14.949C153.137 14.5492 152.895 14.1861 152.587 13.8818L152.589 13.8762Z" fill="#171650"></path>
      </g>
      <path id="Path 167" d="M20.1012 5.8864L3.20245 5.79248C2.69289 5.79388 2.19261 5.92716 1.7515 6.179C1.31039 6.43083 0.943882 6.79242 0.688518 7.22772C0.433154 7.66302 0.297877 8.1568 0.296159 8.65982C0.294441 9.16285 0.426353 9.65753 0.678737 10.0945L9.04671 24.7287C9.29474 25.1668 9.65606 25.532 10.0938 25.7871C10.5315 26.0422 11.03 26.1781 11.5383 26.181C12.0466 26.1838 12.5466 26.0534 12.9872 25.8031C13.4278 25.5529 13.7933 25.1917 14.0463 24.7565L22.5777 10.2162C22.8349 9.78183 22.9723 9.28851 22.9761 8.78542C22.98 8.28233 22.8501 7.78703 22.5995 7.34893C22.3489 6.91083 21.9864 6.54525 21.548 6.28863C21.1097 6.032 20.6108 5.89332 20.1012 5.8864Z" fill="#2840FF"></path>
      <g id="Group 587">
        <path id="Path 168" d="M23.0259 5.7318L13.8325 0.437753C13.5383 0.269979 13.2043 0.181962 12.8646 0.182621C12.5248 0.183279 12.1912 0.272591 11.8977 0.441503C11.6042 0.610416 11.3611 0.852932 11.1931 1.14447C11.0251 1.436 10.9381 1.7662 10.941 2.1016V12.6834C10.9381 13.0187 11.0251 13.3488 11.1931 13.6402C11.3611 13.9317 11.6041 14.1741 11.8976 14.343C12.191 14.5119 12.5245 14.6012 12.8641 14.602C13.2038 14.6027 13.5376 14.5148 13.8318 14.3472L23.0253 9.05632C23.3181 8.88571 23.5608 8.64268 23.7294 8.35121C23.8981 8.05973 23.9868 7.72988 23.9868 7.39423C23.9869 7.05857 23.8983 6.7287 23.7298 6.43717C23.5613 6.14563 23.3187 5.90252 23.0259 5.7318Z" fill="black"></path>
      </g>
      <path id="Path 169" d="M23.0237 5.73229L13.8303 0.438241C13.5361 0.270468 13.2021 0.182451 12.8624 0.183109C12.5226 0.183768 12.1891 0.273079 11.8955 0.441991C11.602 0.610904 11.3589 0.85342 11.1909 1.14496C11.0229 1.43649 10.9359 1.76669 10.9388 2.10209V12.6839C10.936 13.0192 11.0229 13.3493 11.1909 13.6407C11.3589 13.9321 11.6019 14.1746 11.8954 14.3435C12.1888 14.5124 12.5223 14.6017 12.8619 14.6025C13.2016 14.6032 13.5354 14.5153 13.8296 14.3477L23.0231 9.05681C23.3159 8.8862 23.5586 8.64317 23.7272 8.35169C23.8959 8.06022 23.9846 7.73037 23.9846 7.39471C23.9847 7.05906 23.8961 6.72919 23.7276 6.43766C23.5591 6.14612 23.3165 5.90301 23.0237 5.73229Z" fill="url(#paint0_linear_396_7006)"></path>
      <path id="Path 170" fill-rule="evenodd" clip-rule="evenodd" d="M23.0237 5.73229L13.8303 0.438241C13.5361 0.270468 13.2021 0.182451 12.8624 0.183109C12.5226 0.183768 12.1891 0.273079 11.8955 0.441991C11.602 0.610904 11.3589 0.85342 11.1909 1.14496C11.0229 1.43649 10.9359 1.76669 10.9388 2.10209V12.6839C10.936 13.0192 11.0229 13.3493 11.1909 13.6407C11.3589 13.9321 11.6019 14.1746 11.8954 14.3435C12.1888 14.5124 12.5223 14.6017 12.8619 14.6025C13.2016 14.6032 13.5354 14.5153 13.8296 14.3477L23.0231 9.05681C23.3159 8.8862 23.5586 8.64317 23.7272 8.35169C23.8959 8.06022 23.9846 7.73037 23.9846 7.39471C23.9847 7.05906 23.8961 6.72919 23.7276 6.43766C23.5591 6.14612 23.3165 5.90301 23.0237 5.73229Z" fill="#63E5FF"></path>
    </g>
  </g>
  <defs>
    <linearGradient id="paint0_linear_396_7006" x1="20.2535" y1="487.37" x2="12.1876" y2="488.15" gradientUnits="userSpaceOnUse">
      <stop stop-color="#63E5FF"></stop>
      <stop offset="1" stop-color="#29B7FF"></stop>
    </linearGradient>
    <clipPath id="clip0_396_7006">
      <rect width="155" height="26" fill="white" transform="translate(0.297363 0.180664)"></rect>
    </clipPath>
  </defs>
</svg>
